<?xml version="1.0" standalone="no"?>
<!DOCTYPE svg PUBLIC "-//W3C//DTD SVG 1.1//EN" "http://www.w3.org/Graphics/SVG/1.1/DTD/svg11.dtd">
<svg xmlns="http://www.w3.org/2000/svg">
<metadata>Copyright (C) 2019 by original authors @ fontello.com</metadata>
<defs>
<font id="ltx-weisber" horiz-adv-x="1000" >
<font-face font-family="ltx-weisber" font-weight="400" font-stretch="normal" units-per-em="1000" ascent="850" descent="-150" />
<missing-glyph horiz-adv-x="1000" />
<glyph glyph-name="beers" unicode="&#xe800;" d="M622 382c-9-2-15-10-14-19l58-326c1-8 8-13 16-13 1 0 2 0 3 0 9 1 15 10 13 19l-57 326c-2 9-10 15-19 13z m0 0m87-18c-9-2-15-10-14-19l46-261c2-8 9-13 17-13 0 0 1 0 2 0 9 1 15 10 14 19l-46 260c-2 9-10 15-19 14z m0 0m-160-45c-9-2-15-10-14-19l43-245c2-7 9-13 17-13 1 0 2 0 3 0 9 2 15 10 13 19l-43 244c-1 5-3 9-7 11-3 3-8 4-12 3z m0 0m383-268c45 8 75 50 67 95l-40 228c-8 45-51 75-96 67l-49-8-3 16 16 3c5 0 9 3 11 6 3 4 4 9 3 13l-10 54c6 4 10 9 14 14 8 12 12 26 10 40v0c-2 15-10 29-22 39-14 10-31 14-48 11l-191-34-379 67c-17 3-34-1-48-11-12-10-20-24-22-39-2-14 2-28 10-40 4-5 8-10 14-13l-10-55c0-4 1-9 3-12 3-4 6-6 11-7l16-3-3-16-49 8c-45 8-87-22-95-67l-41-228c-8-45 22-87 67-95l49-9-3-16-16 3c-4 0-9-1-12-3-4-3-6-6-7-11l-12-65c-1-9 5-17 14-19l392-69 4-25c1-8 8-14 16-14 1 0 2 0 3 0l423 75c9 1 15 10 14 19l-12 65c-1 9-10 15-19 14l-16-3-3 16z m-63 358c27 4 52-14 57-41l40-227c5-27-13-53-40-58l-49-8-3 16 33 6c27 4 45 30 40 57l-34 195c-5 27-31 45-58 41l-32-6-3 16z m-69 105l5-33-244-43-5 33z m101-385l-32-6-41 228 33 6c9 2 18-4 19-13l35-196c0-4-1-8-3-12-3-4-7-6-11-7z m-110 467c8 2 16 0 22-5 5-4 9-9 9-16 1-6 0-12-4-17-4-5-9-9-16-10l-268-47c-9-2-15-10-14-19l12-65v-1l2-13c0 0 0 0 0-1 1-6 0-12-4-16-2-2-3-3-5-3l-1-1 0 0h0c-4-2-9-1-13 1-2 1-4 2-6 4-1 2-2 3-2 5l0 0c-1 1-1 1-1 2l0 1c-2 8-10 14-19 13s-15-10-14-19l0-1 12-64c1-5-1-9-3-13-3-3-7-6-11-6-2-1-4-1-6 0-1 0-1 0-2 0-2 1-4 3-6 4-1 1-2 3-3 4-1 2-1 3-2 5l-14 81c-1 5-4 9-8 12-2 1-4 1-6 1-1 1-2 1-2 1-1 0-2 0-3 0-4-1-9 0-12 2-4 3-6 7-7 11l-15 82c0 5 1 10 5 14 2 2 6 4 9 5z m-660-440l-32 6c-4 1-8 3-11 7-2 4-3 8-2 12l34 196c1 4 3 8 7 10 3 3 8 4 12 3l33-6z m69 391l149-26c-1-6-1-13 0-19l2-15-156 28z m-13 77c7 5 15 7 22 5l290-51-110-19c-7-1-14-4-20-8l-18 3-153 27c-6 1-12 5-16 10-3 5-5 11-4 17 0 7 4 12 9 16z m-113-508c-27 5-45 31-40 58l40 228c5 26 31 44 57 40l49-9-3-16-32 6c-27 4-53-14-58-41l-34-195c-5-27 13-53 40-57l33-6-3-16z m78-31c0 0 9 49 9 49l60 342 136-24 6-32c1-3 1-6 3-8-4-3-6-6-7-10l-57-326c-2-9 4-17 13-19 1 0 2 0 3 0 8 0 15 5 17 13l55 314c4-2 9-3 14-4l12-68c1-7 4-13 8-19l0-1-35-198c-2-9 4-17 13-19 1 0 2 0 3 0 8 0 15 6 17 13l25 143 33-190-8-45-325 57z m-49-91l6 32 386-68 0-1-16-3c-9-2-15-10-13-19l1-6z m794-34l-390-68-4 20v1l-2 11 391 69z m-369 2l-55 310c27 5 45 30 40 57l-3 19c8-1 17 0 25 3 0 0 1 0 1 0 1 0 3 1 3 1 2 1 3 2 4 3 4 2 8 5 11 8l0 0c0 1 0 1 1 1 0 0 0 1 1 1 9 11 14 26 11 41l3 0 209 37 74-423z m0 0m-237 435c-4 1-8 0-12-3-4-2-6-6-7-11l-46-260c-1-9 5-18 14-19 1 0 2 0 3 0 8 0 14 5 16 13l46 261c1 9-5 17-14 19z m0 0m474 354c27 0 49 22 49 49s-22 50-49 50c-28 0-50-22-50-50s22-49 50-49z m0 66c9 0 16-7 16-17 0-9-7-16-16-16-10 0-17 7-17 16 0 10 7 17 17 17z m0 0m-149-182c36 0 66 30 66 66s-30 66-66 66c-37 0-66-29-66-66s29-66 66-66z m0 99c18 0 33-14 33-33 0-18-15-33-33-33-18 0-33 15-33 33 0 19 15 33 33 33z m0 0m-314-16c36 0 66 29 66 66s-30 66-66 66c-37 0-66-30-66-66s29-66 66-66z m0 99c18 0 33-15 33-33 0-18-15-33-33-33-19 0-33 15-33 33 0 18 14 33 33 33z m0 0m148-165c28 0 50 22 50 49s-22 50-50 50c-27 0-49-22-49-50s22-49 49-49z m0 66c10 0 17-8 17-17 0-9-7-16-17-16-9 0-16 7-16 16 0 9 7 17 16 17z m0 0" horiz-adv-x="1000" />

<glyph glyph-name="brewing" unicode="&#xe801;" d="M83 500c-9 0-16-7-16-17v-16c0-9 7-17 16-17s17 8 17 17v16c0 10-7 17-17 17z m884-536v86c0 21-14 40-34 47-7 125-100 217-186 252-16 6-30 11-44 16-84 31-130 48-136 136l0 3c10 6 16 17 17 29v230c9 22 26 40 47 51l10 5c7 3 11 11 9 18-2 8-9 13-16 13h-267c-8 0-15-5-17-13-2-7 2-15 9-18l10-5c21-11 38-29 48-51v-229c0-12 6-23 17-29l-1-3c-6-88-52-105-136-136-14-5-28-11-44-17-12-5-24-11-36-18v36c27 0 50 23 50 50v183c0 28-23 50-50 50h-34c-27 0-50-22-50-50v-67c-14 11-31 17-50 17-46 0-83-37-83-83s37-84 83-84c20 0 38 7 53 19 6-21 25-35 47-36v-58c-67-50-110-127-116-211-20-7-33-26-34-47v-86c-19-7-33-26-33-47v-17c0-28 23-50 50-50h900c28 0 50 22 50 50v17c0 21-13 40-33 47z m-784 653h34c9 0 16-8 16-17v-50h-66v50c0 9 7 17 16 17z m-100-200c-27 0-50 22-50 50s23 50 50 50 50-23 50-50-22-50-50-50z m84 0v100h66v-100c0-10-7-17-16-17h-34c-9 0-16 7-16 17z m283 116v217h100v-217h-100z m130 284c-10-10-18-21-24-34h-112c-6 13-14 24-23 34h159z m-397-552v-82c0-9 8-16 17-16 9 0 17 7 17 16v108c15 11 31 20 49 27 15 6 29 11 43 16 83 31 149 56 158 165v1h66v-1c9-109 75-134 158-165 14-5 28-10 43-16 76-30 158-111 165-218h-798c5 64 35 123 82 165z m-116-215c0 9 7 17 16 17h834c9 0 16-8 16-17v-83h-83v50c0 9-8 16-17 16s-16-7-16-16v-50h-34v50c0 9-7 16-16 16s-17-7-17-16v-50h-500v50c0 9-7 16-17 16-9 0-16-7-16-16v-50h-34v50c0 9-7 16-16 16s-17-7-17-16v-50h-83v83z m900-150c0-9-8-17-17-17h-900c-9 0-17 8-17 17v17c0 9 8 16 17 16h900c9 0 17-7 17-16v-17z m-467 233c87 0 150 49 150 117s-63 117-150 117c-72 0-127-34-144-84h-23c-9 0-16-7-16-16s7-17 16-17h17c0-11 2-23 6-33h-23c-9 0-16-8-16-17s7-17 16-17h42c32-34 78-52 125-50z m0 200c68 0 117-35 117-83s-49-83-117-83c-46 0-84 16-103 42 0 0-1 1-1 1-8 12-13 26-13 40 0 48 49 83 117 83z m0-133c52 0 91 25 91 58s-39 59-91 59-91-25-91-59 39-58 91-58z m0 83c35 0 57-15 57-25s-22-25-57-25c-35 0-57 15-57 25s22 25 57 25z" horiz-adv-x="1000" />

<glyph glyph-name="call" unicode="&#xe802;" d="M708-150c5 0 9 0 14 0 48 0 88 17 120 52 0 0 0 0 0 0 12 14 24 26 38 39 9 9 19 18 27 27 42 44 42 100 0 142l-117 117c-20 21-44 32-69 32-26 0-50-11-70-32l-70-69c-6 4-12 7-18 10-8 4-15 8-22 12-63 40-120 92-175 160-28 34-46 64-59 94 18 16 35 33 51 50 6 5 12 12 18 18 44 44 44 98 0 142l-58 58c-7 6-13 13-20 20-13 13-26 27-39 39-21 20-44 30-70 30-25 0-49-10-70-30l-72-73c-27-26-42-59-46-96-3-47 5-97 28-156 34-93 85-179 161-271 93-110 205-198 332-260 49-23 114-50 186-55z m-479 348c-72 87-121 168-153 255-20 54-27 95-24 135 2 25 12 47 30 65l73 72c11 11 23 16 35 16 11 0 23-5 34-16 13-12 25-25 38-38 7-7 14-14 21-21l58-58c24-23 24-47 0-71-6-6-13-12-18-18-19-18-35-35-54-52 0 0-1-1-1-1-17-17-14-33-10-45 0 0 0-1 1-1 15-36 36-71 68-112 58-71 120-127 188-171 8-5 17-10 26-14 8-4 15-7 21-11 1-1 2-1 2-2 7-3 13-4 20-4 16 0 26 10 30 13l72 73c11 11 23 17 35 17 14 0 26-9 34-17l117-117c29-29 16-55-1-72-8-9-16-17-25-26-14-13-28-27-41-42-22-24-49-35-83-35-3 0-7 0-10 1-64 4-123 28-167 50-122 58-228 141-316 247z m321 469c-14 2-27-7-29-20-2-14 7-27 20-29 57-10 108-37 149-77 41-41 67-93 77-149 2-12 13-21 25-21 1 0 3 0 4 0 14 3 23 16 21 29-12 67-43 128-91 176-49 48-110 80-176 91z m424-287c2 0 3 0 5 0 13 2 23 15 20 29-19 110-71 210-150 290-80 80-181 132-291 151-14 2-27-7-29-21-2-14 7-26 21-29 100-17 191-64 263-136s119-164 136-263c3-13 13-21 25-21z" horiz-adv-x="1000" />

<glyph glyph-name="certificate" unicode="&#xe803;" d="M938 850h-875c-35 0-63-28-63-62v-709c0-34 28-62 63-62h500v41h-500c-12 0-21 10-21 21v709c0 11 9 20 21 20h875c11 0 20-9 20-20v-709c0-11-9-21-20-21h-42v-41h42c34 0 62 28 62 62v709c0 34-28 62-62 62z m-63-208c-46 0-83 37-83 83 0 12-10 21-21 21h-542c-11 0-21-9-21-21 0-46-37-83-83-83-11 0-21-10-21-21v-375c0-12 10-21 21-21 46 0 83-37 83-83 0-12 10-21 21-21h271v42h-252c-9 52-50 93-102 102v337c52 9 93 50 102 102h504c9-52 50-93 102-102v-169h42v188c0 11-9 21-21 21z m-146-229c-103 0-187-84-187-188s84-187 187-187c104 0 188 84 188 187 0 104-84 188-188 188z m0-334c-80 0-146 66-146 146 0 81 66 146 146 146 81 0 146-65 146-146 0-80-65-146-146-146z m84 21v-186l-71 56c-7 6-18 6-26 0l-70-56v186h-42v-229c0-5 2-10 5-13 7-9 20-11 29-3l91 72 91-72c4-3 9-5 13-5 12 0 21 9 21 21v229h-41z m-105 542h-416c-12 0-21-10-21-21v-83c0-12 9-21 21-21h416c12 0 21 9 21 21v83c0 11-9 21-21 21z m-20-84h-375v42h375v-42z m41-229c-57 0-104-46-104-104s47-104 104-104c58 0 104 47 104 104 0 58-46 104-104 104z m0-166c-34 0-62 28-62 62s28 63 62 63 63-28 63-63-28-62-63-62z" horiz-adv-x="1000" />

<glyph glyph-name="delivery" unicode="&#xe804;" d="M960 629l-454 220c-4 2-8 2-12 0l-454-220c-5-2-9-7-9-13v-532c0-6 4-11 9-13l454-220c2-1 4-1 6-1s4 0 6 1l454 220c6 2 9 7 9 13v532c0 6-3 11-9 13z m-460 190l420-203-121-59c-1 1-2 2-3 2l-417 201 121 59z m-155-75l420-203-86-41-419 202 85 42z m430-230v-154l-80-39v154l80 39z m164-421l-424-205v500l101 49c7 3 10 12 7 19-4 8-12 11-20 7l-103-50-41 20c-7 3-16 0-19-7-4-7-1-16 7-19l38-19v-500l-424 205v500l323-156c2-1 4-2 6-2 6 0 11 3 14 9 3 7 0 16-7 19l-317 153 145 70 440-212c0 0 0 0 0 0v-176c0-5 3-10 7-12 3-2 5-3 8-3 2 0 4 1 6 2l110 53c5 2 8 7 8 13v177l135 65v-500z m-757 57l-67 32c-7 4-16 1-20-7-3-7 0-16 7-19l67-32c2-1 4-2 6-2 6 0 11 3 13 8 4 8 1 16-6 20z m61 40l-128 62c-7 3-16 0-20-7-3-8 0-16 7-20l128-62c2-1 4-1 6-1 6 0 11 3 14 8 3 8 0 16-7 20z" horiz-adv-x="1000" />

<glyph glyph-name="dish" unicode="&#xe805;" d="M708 513l-11 35c-13 40-57 62-97 48-22-8-40-25-47-48l-11-35c-9-30-11-61-6-92 5-25 22-47 45-60l-12-268c-2-15 3-29 13-41 22-23 59-25 82-3 2 1 3 2 4 3 10 11 15 26 13 40l-12 269c23 13 40 35 45 60 5 31 3 62-6 92z m-27-86c-4-18-17-34-35-40-6-2-11-9-11-16l13-281c1-6-1-11-5-15-10-10-26-10-36 0-4 4-6 10-5 16l13 280c0 7-4 14-11 16-18 6-31 22-35 40-4 26-3 52 5 76l11 35c8 23 33 34 55 26 12-4 21-14 26-26l10-35c8-24 9-50 5-76z m-231 173c-9 0-17-7-17-17v-143l-45-45c-3-3-5-8-5-12l15-292c0-6-2-13-6-17-9-9-24-9-34 0 0 0 0 0 0 0-4 4-6 11-6 17l15 292c0 4-2 9-5 12l-45 45v143c0 10-8 17-17 17s-17-7-17-17v-150c0-4 2-8 5-11l45-45-14-285c-2-31 22-57 53-58 31-2 58 22 59 53 0 2 0 4 0 5l-14 285 45 45c3 3 5 7 5 11v150c0 10-8 17-17 17z m-100 0c-9 0-17-7-17-17v-133c0-9 8-17 17-17s17 8 17 17v133c0 10-8 17-17 17z m50 0c-9 0-17-7-17-17v-133c0-9 8-17 17-17s17 8 17 17v133c0 10-8 17-17 17z m100 250c-276 0-500-224-500-500s224-500 500-500 500 224 500 500c0 276-224 500-500 500z m0-967c-258 0-467 209-467 467s209 467 467 467 467-209 467-467c-1-258-209-466-467-467z m54 154c-1 9-9 16-18 15 0 0 0 0-1 0l0 0c-23-3-47-3-70 0-9 1-18-5-19-15-1-9 6-17 15-18 26-3 52-3 78 0 9 1 16 9 15 18z m201 528c-6 7-16 8-23 2 0 0 0 0 0 0-8-6-8-17-2-24 100-119 92-295-18-405-7-7-7-18 0-24 6-7 17-7 23 0 123 122 132 318 20 451z m-367 65c0 0 0 0 0 0 0 0 0 0 0 0h0z m191 44c-65 16-134 11-197-12-8-3-12-13-9-21 2-7 8-11 15-11 2 0 4 0 6 1 57 21 118 25 177 11 9-2 18 3 20 12 2 9-3 18-12 20z m-291-536c-57 56-88 133-88 212 0 63 20 125 57 177 6 7 4 17-3 23s-18 4-23-3c0-1 0-1-1-1-96-132-82-315 34-431 6-7 17-7 24 0 6 6 6 17 0 23z" horiz-adv-x="1000" />

<glyph glyph-name="guitar" unicode="&#xe806;" d="M612 204c-4 7-13 9-20 5-20-13-45-30-69-53-42-42-51-80-59-114-8-31-15-61-48-94-78-77-216-64-309 28-49 49-78 115-78 179 0 51 18 95 51 128 16 16 32 27 51 35 8 3 11 12 8 19-3 8-12 11-19 8-23-9-42-22-61-41-38-38-59-91-59-149 0-72 32-145 87-200 57-57 131-86 200-86 56 0 110 19 149 59 39 38 48 73 56 107 8 33 16 64 52 100 21 21 45 38 64 49 6 5 9 14 4 20z m-205-65l-137 137c-6 5-15 5-21 0l-51-51c-3-3-4-7-4-11 0-4 1-7 4-10l137-137c3-2 6-4 10-4s8 2 10 4l52 52c2 2 4 6 4 10 0 4-2 8-4 10z m-62-40l-116 115 31 31 116-116-31-30z m-35-113c-2 13-9 26-20 34s-24 12-38 10c-14-2-26-9-34-20-9-12-12-25-10-39 2-14 9-26 20-34 9-7 20-10 31-10 2 0 5 0 7 0 14 2 26 9 34 20 9 11 12 25 10 39z m-33-21c-4-5-9-8-15-9-6-1-12 1-16 4-5 4-8 9-9 15-1 6 1 12 4 17 4 5 9 8 15 9 1 0 2 0 3 0 5 0 10-2 14-5 0 0 0 0 0 0 4-3 8-9 8-14 1-6 0-12-4-17z m124 57c-17 13-42 10-55-7-13-18-9-42 8-55 7-5 15-8 23-8 2 0 4 0 6 0 10 2 19 7 26 16 13 17 9 41-8 54z m-16-37c-3-4-9-5-14-2s-5 10-1 14c1 2 4 4 7 4 2 0 4-1 6-2 5-3 5-10 2-14z m594 826c-26 25-66 28-90 5l-10-7-16 17c-6 5-15 5-21 0-6-6-6-15 0-21l12-12-21-14-17 17c-5 6-15 6-20 0-6-6-6-15 0-21l12-12-21-14-17 18c-6 5-15 5-21 0-6-6-6-15 0-21l13-13-33-22c-6-4-10-10-10-17-1-8 2-15 7-21 0 0 1 0 1 0 0 0 0 0 0 0l-247-246c-7 36 0 78 7 112 6 38 11 62-3 76-5 4-13 9-27 6-85-17-128-99-159-159-11-23-21-42-30-51-32-32-60-41-86-48-8-2-13-10-11-18 2-6 8-11 15-11 1 0 2 0 3 1 29 7 62 18 99 55 13 12 23 33 36 59 29 54 67 129 139 144 0 0 0 0 1 0 1-9-3-31-6-49-7-40-17-94-2-141l-37-37-29 29c-6 6-15 6-21 0l-51-51c-3-3-4-6-4-10 0-4 1-8 4-11l137-136c3-3 6-4 10-4 4 0 8 1 10 4l52 51c2 3 4 7 4 11 0 3-2 7-4 10l-29 29 32 32c36-19 73-23 101-26 16-1 36-3 40-9 0-1 2-4-1-16-3-8-11-16-26-27-7-5-8-14-3-20 2-4 7-7 12-7 3 0 5 1 8 3 14 10 31 24 37 43 5 17 4 30-3 41-11 16-33 19-61 21-24 3-53 6-82 19l259 258c4-1 8-1 11-1 1 0 1 0 1 0 13 0 24 5 33 14l9 10c6 6 6 15 0 21-6 5-15 5-21-1l-9-10c0 0 0 0-1 0-3-4-8-5-11-5-6 0-13 3-18 8l-54 54 156 102c0 1 1 1 2 2 12 12 35 11 49-4 8-8 13-18 13-29 0-8-3-15-8-20-6-6-15-9-24-8-4 0-9-2-12-5l-39-40c-5-5-5-15 1-20 5-6 15-6 20 0l35 35c15 1 29 7 39 17 11 11 17 25 17 41 0 18-8 36-21 50z m-514-593l-116 116 31 30 116-115-31-31z m12 90l-37 38 72 71 37-37-72-72z m93 93l-38 37 38 37 37-37-37-37z m58 58l-37 37 37 37 37-37-37-37z m58 58l-37 37 37 37 37-37-37-37z m99 98c0 0 0 0 0 0l-41-41-37 38 40 40 38-37z" horiz-adv-x="1000" />

<glyph glyph-name="hop" unicode="&#xe809;" d="M1000 850h-1000v-33h67c101 0 183-82 183-184v-50c-122-9-216-111-217-233 0-9 8-17 17-17 10 0 19 1 28 2-18-30-28-66-28-102 0-9 8-16 17-16h16c3 0 5 0 7 0-15-31-23-65-23-100 0-9 7-17 16-17h34c27 0 53 6 78 17l59-73c5-8 16-9 23-3 1 1 2 2 3 3l58 73c25-11 52-17 79-17h33c9 0 17 8 17 17 0 35-8 69-24 100 2 0 5 0 7 0h17c9 0 16 7 16 16 0 36-9 72-28 102 9-1 19-2 28-2 10 0 17 8 17 17 0 122-95 224-217 233v50c0 75-38 144-101 184h185c7-133 86-250 206-306l20-9c8-4 18-1 22 8 2 3 2 6 1 10l-25 127c41-25 86-40 132-47 18-42 27-87 27-133v-55c-122-9-216-110-217-233 0-9 8-16 17-16 10 0 19 0 28 2-18-31-28-66-28-102 0-9 8-17 17-17h16c3 0 5 0 7 1-15-32-23-66-23-101 0-9 7-17 16-17h34c27 1 53 6 78 17l59-73c5-7 16-8 23-3 1 1 2 2 3 3l58 73c25-11 52-17 79-17h33c9 0 17 8 17 17 0 35-8 69-24 101 2 0 5-1 7-1h17c9 0 16 8 16 17 0 36-9 71-28 102 9-2 19-2 28-2 10 0 17 7 17 16 0 123-95 224-217 233v55c0 44-7 88-23 130 48-1 95 7 139 25l74 29c8 4 13 13 9 22-1 2-2 4-4 6l-6 6c-65 59-142 104-225 132h253z m-933-483c9 97 86 174 182 182-8-96-85-173-182-182z m17-117c4 37 20 71 45 97 20 8 38 17 56 29 1-2 3-4 4-6l35-43c-31-47-83-77-140-77z m161 50l9-10c5-8 16-9 23-3 1 1 2 2 3 3l8 10c12-16 25-30 41-42-3-6-7-12-11-17l-51-64-52 64c-4 5-8 11-11 17 16 12 30 26 41 42z m-128-167h-16c3 32 14 63 31 90 16 4 30 10 44 17 4-7 8-13 13-20l37-46c-31-26-69-40-109-41z m150-52l-42 51c8 5 15 10 22 16l7-8c5-8 16-9 23-3 1 1 2 2 3 3l6 8c7-6 14-11 22-16z m150 52c-40 1-79 15-110 41l37 46c5 7 10 13 14 20 13-7 28-13 43-17 18-27 29-58 32-90z m32 117c-56 0-109 30-139 77l34 43c2 2 3 4 5 6 17-12 36-21 56-29 25-26 41-60 44-97z m17 117h0c-97 9-173 86-182 182 97-8 173-85 182-182z m-143 31c-2-3-3-5-5-7l-51-64-52 64c-2 2-3 4-5 7 25 23 44 51 57 83 12-32 31-60 56-83z m244-201c4 47 25 91 58 124 33 33 77 54 124 58-8-97-85-174-182-182z m17-118c4 37 20 71 45 98v0c20 7 38 17 56 29 1-2 3-4 4-6l35-43c-31-48-83-77-140-78z m161 50l9-10c5-7 16-8 23-3 1 1 2 2 3 3l8 10c12-16 25-30 41-42h0c-3-6-7-11-11-16l-51-65-52 65c-4 5-8 10-11 16 16 12 30 26 41 42z m-128-166h-16c3 32 14 63 31 89 16 4 30 10 44 17 4-7 8-13 13-19l37-47c-31-25-69-39-109-40z m150-53l-42 52c8 4 15 10 22 15l7-8c5-7 16-8 23-3 1 1 2 2 3 3l6 8c7-6 14-11 22-15z m166 53h-16c-40 0-79 14-110 40l37 47c5 6 10 12 14 19 13-7 28-13 43-17 18-26 29-57 32-89z m16 116c-56 1-109 30-139 78l34 43c2 2 3 4 5 6 17-12 36-22 56-29 25-27 41-61 44-98z m17 118l0 0c-97 8-173 85-182 182 97-9 173-85 182-182z m-199 113c12-31 31-60 56-83-2-2-3-4-5-6l-51-65-52 65c-2 2-3 4-5 6 25 23 44 52 57 83z m169 362l-1 0-48-19c-104-42-222-25-310 44-7 5-18 4-23-3-3-4-5-9-4-14l27-134c-103 52-170 155-176 271h143c144 0 283-51 392-145z m0 0" horiz-adv-x="1000" />

<glyph glyph-name="left_wheat_new" unicode="&#xe80a;" d="M662 361c0 0 25 160-155 155-4-179 155-155 155-155z m0-19c0 0-159 25-155-155 179-5 155 155 155 155z m313 25h-163c2 26 6 154-155 150-4-166 132-157 152-154v-21c-20 3-156 11-152-156 159-3 157 122 155 150h163v31z m-463-6c0 0 25 160-155 155-4-179 155-155 155-155z m0-19c0 0-159 25-155-155 180-5 155 155 155 155z m-153 19c0 0 25 160-154 155-4-179 154-155 154-155z m-106-10c0 0-96 130-220 0 124-130 220 0 220 0z m106-9c0 0-159 25-154-155 179-5 154 155 154 155z" horiz-adv-x="996" />

<glyph glyph-name="location" unicode="&#xe80b;" d="M613 114c81 134 183 322 183 419 0 163-133 296-296 296-163 0-296-133-296-296 0-97 102-285 183-419-96-7-314-33-314-119 0-85 222-124 427-124 206 0 427 39 427 124 0 86-218 112-314 119z m-368 419c0 140 115 255 255 255 141 0 255-115 255-255 0-123-196-431-255-522-59 91-255 399-255 522z m255-621c-250 0-386 55-386 83 0 22 90 69 297 80 39-62 68-107 72-112 6-7 21-15 34 0 4 5 33 50 72 112 207-11 297-58 297-80 0-28-136-83-386-83z m129 621c0 71-58 129-129 129-71 0-129-58-129-129 0-71 58-129 129-129 71 0 129 58 129 129z m-217 0c0 48 39 88 88 88s88-40 88-88c0-49-39-88-88-88s-88 39-88 88z" horiz-adv-x="1000" />

<glyph glyph-name="molecular-structure" unicode="&#xe80c;" d="M205 139l77 45c15-18 35-30 58-34l1-90 30 1-1 89c23 4 44 17 58 34l76-43 14 25-75 44c4 10 6 21 6 33 0 12-2 23-6 33l78 46-14 25-79-45c-14 18-34 30-58 34l-1 90-29 0 1-90c-24-3-44-16-59-33l-77 44-15-25 77-45c-4-10-6-22-6-34 0-12 2-23 6-34l-77-45z m150 169c35 0 64-29 64-65s-29-64-64-64c-36 0-65 29-65 64s29 65 65 65z m0 0m-94 236c0-51 42-94 94-94 29 0 56 14 73 36l79-46 14 26-78 45c4 10 6 22 6 33 0 47-34 86-79 93l0 26c44 8 79 46 79 93 0 52-42 94-94 94s-94-42-94-94c0-47 34-86 79-93l1-26c-45-7-80-46-80-93z m158 0c0-35-29-64-64-64-36 0-65 29-65 64s29 65 65 65c35 0 64-29 64-65z m-129 212c0 36 29 65 65 65 35 0 64-29 64-65 0-36-29-64-64-64-36 0-65 28-65 64z m0 0m477-119c-52 0-94-42-94-94 0-21 7-40 18-56l-18-18c-16 12-35 19-56 19-52 0-94-42-94-94 0-47 34-86 79-93v-82h29v82c45 7 80 46 80 93 0 20-7 38-17 54l18 19c15-11 34-18 55-18 52 0 94 42 94 94 0 52-42 94-94 94z m-150-308c-36 0-65 29-65 65 0 35 29 64 65 64s64-29 64-64c0-36-29-65-64-65z m150 149c-36 0-65 29-65 65s29 64 65 64c36 0 65-29 65-64s-29-65-65-65z m0 0m-150-284c-52 0-94-42-94-94 0-14 3-28 9-41l-81-45 14-26 84 47c17-18 41-29 68-29 51 0 94 42 94 94s-43 94-94 94z m0-158c-36 0-65 28-65 64 0 36 29 65 65 65s64-29 64-65c0-36-29-64-64-64z m0 0m-261 0c-30 0-56-14-73-35l-78 45-15-25 78-45c-4-11-6-22-6-34 0-52 42-94 94-94s94 42 94 94c0 52-42 94-94 94z m0-159c-36 0-65 29-65 65 0 36 29 65 65 65 35 0 64-29 64-65 0-36-29-65-64-65z m0 0m-246 308v90h-30v-90c-45-7-79-46-79-93 0-51 42-94 94-94 52 0 94 43 94 94 0 47-34 86-79 93z m-15-157c-36 0-65 29-65 64s29 65 65 65c36 0 65-29 65-65s-29-64-65-64z m0 0m165 444l-15 25-77-44c-17 21-43 35-73 35-52 0-94-42-94-94 0-52 42-94 94-94 52 0 94 42 94 94 0 11-2 23-6 33z m-165-143c-36 0-65 29-65 65 0 35 29 64 65 64 36 0 65-29 65-64 0-36-29-65-65-65z m0 0m260 170c-12 0-23 5-32 14l21 20c6-6 16-6 22 0s6 16 0 22l21 21c17-17 17-46 0-63-9-9-21-14-32-14z m0 0m0 212c-12 0-23 4-32 13l21 21c6-6 16-6 22 0 6 6 6 16 0 22l21 21c17-18 17-46 0-64-9-9-21-13-32-13z m0 0m412-213c-12 0-23 4-32 13l21 21c6-6 16-6 22 0 6 6 6 16 0 22l21 21c17-18 17-46 0-64-9-9-20-13-32-13z m0 0m-150-149c-12 0-24 4-32 13l21 21c2-3 6-5 11-5 4 0 8 2 11 5 3 3 4 7 4 11 0 4-1 8-4 11l20 21c18-18 18-47 0-64-8-9-19-13-31-13z m0 0m0-294c-12 0-24 5-32 13l21 21c2-3 6-5 11-5 4 0 8 2 11 5 3 3 4 7 4 11 0 4-1 8-4 11l20 21c18-18 18-46 0-64-8-8-19-13-31-13z m0 0m-261-158c-12 0-24 5-32 13l21 21c3-3 7-5 11-5 4 0 8 2 11 5s4 7 4 11c0 4-1 8-4 11l21 21c8-9 13-20 13-32 0-12-5-23-13-32-9-8-20-13-32-13z m0 0m-1 301c-12 0-24 5-32 13l21 21c3-3 7-4 11-4 4 0 8 1 11 4 6 6 6 16 0 22l21 21c17-18 17-46 0-64-9-8-20-13-32-13z m0 0" horiz-adv-x="1000" />

<glyph glyph-name="organic" unicode="&#xe80d;" d="M950 316h-133c1 12 3 23 5 34 9 80 27 158 54 234 64 4 116 53 123 117 8 64-31 124-93 143-61 19-127-9-157-65-22-41-21-90 3-130-47-65-101-124-162-177-54-51-106-99-140-156h-400c-27 0-50-22-50-50v-33c0-21 14-40 34-47 7-187 140-259 216-268v-18c0-28 23-50 50-50h400c28 0 50 22 50 50v18c76 9 210 81 216 268 20 7 34 26 34 47v33c0 28-22 50-50 50z m-337 132c63 54 119 115 167 182 7 11 7 25 1 36-24 40-16 92 18 124 34 31 86 35 124 9 38-26 53-73 38-116-13-38-47-64-87-66-13-1-25-10-29-22-28-77-47-158-56-240-2-13-4-26-6-39h-294c37 48 78 92 124 132z m104-548c0-9-8-17-17-17h-400c-9 0-16 8-16 17v16h433z m17 50h-467c-61 0-192 59-200 233h866c-8-174-139-233-199-233z m233 283c0-9-8-17-17-17h-900c-9 0-16 8-16 17v33c0 10 7 17 16 17h900c9 0 17-7 17-17z m0 0m-859-104c5-19 12-37 22-54 4-8 14-10 22-6 8 5 11 14 7 22-8 15-14 30-18 46-3 9-12 14-20 12-9-2-15-11-13-20z m0 0m83-120c12-7 24-13 37-18 2 0 4-1 5-1 9 0 15 6 17 14 1 8-3 16-11 19-10 3-20 8-30 15-5 3-11 3-17 0-5-2-8-8-9-14 0-6 3-11 8-15z m0 0m-191 624c0-64 97-133 180-150 42-8 73-42 91-68 7-10 17-15 29-15h0c2 0 3 0 4 0 13 2 24 10 29 23 16 46 26 94 30 143 0 2 0 4 0 6 4 44 1 90-8 134 0 1 0 2 0 3-6 33-19 64-37 92-18 29-50 48-84 49-51 3-99-21-127-62-5 13-10 25-17 37-6 13-19 22-33 24-15 3-30-1-42-11-11-10-17-24-14-39 2-14 12-27 26-32 14-5 27-13 38-22-42-14-65-52-65-112z m110-87c-3 45 18 89 54 116 23-22 44-46 62-72-24-17-37-46-35-75-1 0-3 1-4 1-27 6-53 16-77 30z m222 55c-24 11-50 13-75 4-19 28-41 55-66 78 37 33 92 37 134 10 5-31 7-62 7-92z m-107-99c-5 36 9 53 19 60 18-32 31-68 36-105-15 19-34 34-55 45z m87-32c-6 37-19 73-37 106 19 4 39 0 54-13-3-32-8-63-17-93z m-78 346c23-1 45-14 57-34 10-15 17-31 23-47-51 19-108 7-148-29-15 12-30 24-47 35 8 23 33 75 115 75z m-200-11c-1 3 1 6 3 8 3 2 7 4 11 3 1 0 2 0 3 0 4 0 8-3 10-6 5-10 10-20 14-31-11 8-23 14-35 19-3 1-6 4-6 7z m62-89c15-9 29-20 43-32-36-28-58-70-62-116-26 22-43 47-43 65 0 71 34 82 62 83z m0 0" horiz-adv-x="1000" />

<glyph glyph-name="percentage" unicode="&#xe80e;" d="M500 850c-276 0-500-224-500-500s224-500 500-500 500 224 500 500c0 276-224 500-500 500z m0-967c-258 0-467 209-467 467s209 467 467 467 467-209 467-467c-1-258-209-466-467-467z m0 0m336 533c-12 9-21 21-28 34-3 15-2 31 2 46 5 27 10 54-5 76-16 21-45 25-71 28-15 1-30 5-44 12-10 11-19 23-24 38-11 23-24 50-50 58-24 8-49-5-72-18-13-8-28-14-44-17-16 3-30 9-44 17-23 13-48 26-72 18-26-8-39-35-50-58-5-15-13-27-24-38-14-7-29-11-44-12-26-3-55-7-71-28-15-22-10-49-5-76 4-15 5-31 2-46-6-13-16-25-28-34-19-18-41-39-41-66s22-48 41-66c12-9 22-21 28-34 3-15 2-31-2-46-5-27-10-54 5-75 16-22 45-26 71-29 15-1 30-5 44-12 11-10 19-23 24-38 11-23 24-50 50-58 24-8 49 5 72 18 14 8 28 14 44 17 16-3 31-9 44-17 17-12 37-19 57-21 5 0 10 1 15 3 26 8 39 35 50 59 5 14 14 27 24 37 14 7 29 11 44 12 26 3 55 7 71 29 15 21 10 48 5 75-4 15-5 31-2 46 7 13 16 25 28 34 19 18 41 39 41 66s-22 48-41 66z m-23-108c-16-13-29-29-37-48-4-20-4-41 2-62 3-20 7-40 0-50-7-9-28-12-48-15-21-1-41-7-59-18-16-13-28-31-35-50-9-19-18-38-30-42-11-3-29 7-46 16-18 12-39 19-60 21-21-2-42-9-59-21-18-9-36-19-47-16-12 4-21 23-30 42-7 19-19 37-34 50-18 11-39 17-60 18-20 3-41 5-48 15-7 10-3 30 1 50 5 21 6 42 1 62-8 19-21 35-37 48-15 14-30 29-30 42s15 28 30 42c16 13 29 29 37 48 5 20 4 42-1 62-4 20-8 40-1 50 7 9 28 13 48 15 21 1 42 7 60 18 15 14 27 31 34 50 9 19 18 38 30 42 2 0 3 0 5 0 15-2 29-8 42-16 17-12 38-19 59-21 21 2 42 9 60 21 17 9 35 19 46 16 12-4 21-23 30-42 7-19 19-36 35-50 18-11 38-17 59-18 20-2 41-5 48-15 7-10 3-30 0-50-6-20-6-42-2-62 8-19 21-35 37-48 15-14 30-29 30-42s-15-28-30-42z m0 0m-478-99l306 306 24-24-306-306z m0 0m98 208c37 0 67 30 67 66s-30 67-67 67-66-30-66-67 30-66 66-66z m0 100c19 0 34-15 34-34s-15-33-34-33-33 15-33 33 15 34 33 34z m0 0m134-217c-37 0-67-30-67-67s30-66 67-66 66 30 66 66-29 67-66 67z m0-100c-19 0-34 15-34 33s15 34 34 34 33-15 33-34-15-33-33-33z m0 0" horiz-adv-x="1000" />

<glyph glyph-name="quote" unicode="&#xe80f;" d="M696 754h-288c-33 0-54-16-70-46l-292-712c-17-42 4-75 46-75h396c37 0 58 16 70 50l192 712c13 42-8 71-54 71z m667 0h-288c-33 0-54-16-71-46l-291-712c-17-42 4-75 45-75h396c38 0 59 16 71 50l192 712c12 42-9 71-54 71z" horiz-adv-x="1500" />

<glyph glyph-name="quote_soft" unicode="&#xe810;" d="M621 725c-54 58-121 83-200 83-42 0-79-8-113-20-37-17-70-38-95-63-25-25-46-58-63-92-12-37-21-75-21-116 0-67 21-121 59-167 37-46 87-83 141-112 25-13 42-30 54-55 13-25 17-50 13-83 0-29-8-62-17-96-8-33-21-62-33-92 0-4 4-8 17-12 8-4 12-8 16-8 17 12 42 33 79 66 38 34 75 80 117 134 38 54 71 116 100 191 29 75 38 150 33 234-4 83-33 150-87 208z m742-208c-5 83-34 150-88 208-54 58-121 83-200 83-42 0-79-8-112-20-38-17-67-34-92-63-25-25-46-58-63-92-16-37-25-75-25-116 0-67 21-121 59-167 37-46 87-83 141-112 30-17 46-34 59-59 12-25 16-50 12-83 0-29-8-63-16-96-9-33-21-63-34-92 0-4 4-8 17-12 4-4 8-9 17-9 16 13 41 34 79 67 37 33 75 79 116 134 38 54 71 116 100 191 25 79 38 154 30 238z" horiz-adv-x="1500" />

<glyph glyph-name="receipt" unicode="&#xe811;" d="M609 431v75h16c26 0 47 21 47 47 0 6-1 12-3 17 51 7 87 54 80 105-5 35-29 65-62 76-6 43-45 73-88 67-20-3-39-14-52-31-28 21-66 21-95 0-42 43-112 43-154 0-17-17-28-39-31-63-43-8-70-49-62-92 5-31 30-55 61-62v-79c0-26 21-47 47-47s46 21 46 47v15c0 9 7 16 16 16s16-7 16-16v-75l-32-72c0 2 0 4 0 7 1 26-20 47-46 48-27 0-48-21-48-47-1-26 20-48 46-48 15 0 29 6 38 17l-152-345c-18-39 0-86 40-103 10-4 20-7 31-7h464c44 0 79 35 79 79 0 10-3 21-7 31l-195 440z m-296-81c-9 0-16 7-16 16s7 15 16 15 15-7 15-15-7-16-15-16z m267 72l97-222c-23 7-48 10-73 10-32 1-64-5-94-17-26-11-54-16-83-15-29-1-57 4-83 15-7 2-14 5-21 7l80 181c17-19 46-21 66-4 10 9 15 22 15 36v93h94v-78c0-2 1-4 2-6z m56 120c-3-3-7-4-11-4h-141v31h141c9 0 16-7 16-16 0-4-2-8-5-11l0 0z m-261 11c-26 0-47-21-47-47v-15c0-9-7-16-15-16s-16 7-16 16v93c0 9-7 16-16 16-26 0-47 21-47 47s21 47 47 47c9 0 16 7 16 15 0 44 35 79 78 79 25 0 49-13 64-33 2-4 7-7 12-7 5 0 9 2 13 6 15 20 44 24 65 8 3-2 6-6 9-10 5-7 15-8 22-3 2 2 4 4 5 7 9 25 36 38 60 29 18-6 31-23 31-43 0 0 0-2 0-2 0-8 5-15 13-16 34-7 55-40 49-74-6-29-32-50-62-50h-187c-9 0-16-7-16-16v-171c0-9-7-16-15-16s-16 7-16 16v93c0 26-21 47-47 47z m397-619c-9-14-24-22-40-22h-464c-26 0-47 22-47 48 0 6 2 12 4 18l85 193c8-2 16-5 23-7 30-12 62-18 94-17 32-1 64 5 94 17 27 10 55 15 83 15 29 0 57-5 83-15 3-1 5-2 8-3l80-183c7-14 5-31-3-44z m25 666c-26 0-47-21-47-47s21-47 47-47 47 21 47 47-21 47-47 47z m0-62c-9 0-16 7-16 15s7 16 16 16 16-7 16-16-7-15-16-15z m-656 250c-26 0-47-21-47-47s21-47 47-47 47 21 47 47-21 47-47 47z m0-63c-9 0-16 7-16 16s7 15 16 15 15-7 15-15-7-16-15-16z m297-609c-26 0-47-21-47-47s21-47 47-47 46 21 46 47-20 47-46 47z m0-63c-9 0-16 7-16 16s7 15 16 15 15-7 15-15-7-16-15-16z m171-15c-26 0-46-21-46-47s20-47 46-47 47 21 47 47l0 0c0 26-21 47-47 47z m0-63c-8 0-15 7-15 16s7 15 15 15 16-7 16-15-7-16-16-16z" horiz-adv-x="1000" />

<glyph glyph-name="separator_vert" unicode="&#xe813;" d="M8 817c1 8 0 17 0 25 0 2-2 2-2 0 0-8-1-17 0-25 0-2 2-2 2 0z m0-94c3 22 2 46 0 67 0 1-2 1-2 0-2-22-3-46 0-67 1-2 2-2 2 0z m0-33c-3-48-6-96-1-143 0-2 2-2 2 0 4 48 2 95 0 143 1 2-1 2-1 0z m1-173c0 2-2 2-2 0-1-32-1-62-1-94 0-27-2-58 1-84 0-3 4-3 4 0 2 27 0 57 0 84 0 32 0 62-2 94z m-1-273c3 22 2 46 0 67 0 1-2 1-2 0-2-22-3-46 0-67 1-1 2-1 2 0z m1-179c4 48 2 96 0 143 0 2-2 2-2 0-3-47-6-96-1-143 1-2 3-2 3 0z m0-33c0 2-2 2-2 0-1-31-1-62-1-93 0-28-2-59 1-85 0-3 4-3 4 0 2 27 0 57 0 85 0 31 0 62-2 93z" horiz-adv-x="19" />

<glyph glyph-name="water" unicode="&#xe814;" d="M251 149c162 0 251 95 251 267 0 161-228 418-238 429-3 3-8 5-13 5s-9-2-12-5c-10-11-238-268-238-429 0-172 89-267 250-267z m0 659c48-56 218-264 218-392 0-107-38-234-218-234s-217 127-217 234c0 128 170 336 217 392z m0 0m468-693c96 0 150 64 150 175 0 105-132 248-138 254-3 4-7 5-12 5s-9-1-12-5c-6-6-138-149-138-254 0-111 55-175 150-175z m0 393c32-38 117-143 117-218 0-94-39-141-117-141s-117 47-117 141c0 75 85 180 117 218z m0 0m-246-331c-4-5-105-120-105-195 0-85 43-134 117-134 75 0 117 49 117 134 0 75-100 190-104 195-3 3-8 5-13 5s-9-2-12-5z m12-295c-55 0-83 33-83 100 0 45 52 119 83 158 32-39 84-113 84-158 0-67-28-100-84-100z m0 0m-269 334c1 0 2 0 2 0 9 0 16 7 17 16 0 8-6 16-15 17-35 2-68 18-89 46-45 57-30 151-30 152 1 9-5 17-14 18-9 2-17-4-19-13-1-4-17-108 36-178 27-34 68-56 112-58z m0 0m486-34c31 1 61 13 82 35 19 24 25 55 18 85-1 9-10 15-19 13-9-1-15-10-14-19 6-19 2-40-10-57-15-15-36-23-57-23-9 0-16-8-16-17s7-17 16-17z m0 0m-226-235c-5 2-9 6-11 11-2 6-1 11 2 16 4 9 1 19-8 23-8 4-18 0-22-8-7-13-8-28-4-41 5-14 15-25 28-31 8-5 18-1 23 7 4 8 0 18-8 22z m0 0" horiz-adv-x="1000" />

<glyph glyph-name="wheat" unicode="&#xe815;" d="M917 174c-1 8-8 14-17 13-2 0-4 0-7-1 13 19 19 41 19 63v49c0 6 0 12-1 18-1 8-9 14-17 13-2 0-5 0-7-1 10 17 15 36 15 55v25 19 78c0 9-7 16-15 16-9 0-16-7-16-16v-50c-29-4-50-13-64-24v142c0 9-7 16-16 16-9 0-16-7-16-16v-142c-14 11-34 20-64 24v50c0 9-7 16-15 16-9 0-16-7-16-16v-78-19-25c0-19 5-38 15-55-2 1-4 1-7 1-8 1-15-5-17-13-1-6-1-12-1-18v-49c0-22 7-44 19-63-2 1-5 1-7 1-8 1-16-5-17-13-1-6-2-13-2-19v-52c0-32 14-63 38-87 20-20 46-33 74-39v-111c0-9 7-16 16-16 9 0 16 7 16 16v111c28 6 55 19 75 39 24 24 37 55 37 87v52c0 6-1 13-2 19z m-142-164c-46 10-80 48-80 93v51c53-9 80-32 80-71v-73z m0 152c-43 11-74 46-74 87v47c49-8 74-30 74-66v-68z m0 144c-37 10-64 41-64 77v25 15c43-7 64-26 64-58v-59z m32 59c0 32 21 51 64 58v-15-25c0-36-27-67-64-77v59z m0-135c0 36 25 58 74 66v-47c0-41-31-76-74-87v68z m80-127c0-45-33-83-80-93v73c0 39 27 62 80 71v-51z m-269 158c-6 0-11-1-15-2 16 22 25 47 25 74v52c0 6-1 12-2 18-1 9-9 14-17 14-2-1-4-1-7-1 13 19 19 40 19 63v49c0 5 0 11-1 17-1 9-9 14-17 14-3-1-5-1-7-1 10 16 15 35 15 55v25 19 77c0 9-7 16-15 16-9 0-16-7-16-16v-49c-29-5-50-13-64-24v142c0 8-7 15-16 15s-16-7-16-15v-142c-14 11-34 19-64 24v49c0 9-7 16-15 16s-16-7-16-16v-77-19-25c0-20 5-39 15-55-2 0-4 0-7 1-8 0-15-5-17-14-1-6-1-11-1-17v-49c0-23 6-44 19-63-2 0-5 0-7 1-8 0-16-5-17-14-1-6-2-12-2-18v-52c0-27 9-52 26-74-5 1-10 2-15 2-9 1-16-5-17-13-1-7-2-14-2-20v-56c0-34 14-68 39-93 22-21 50-36 81-41v-78c0-9 7-16 16-16 9 0 16 7 16 16v78c31 5 59 20 81 41 25 25 39 59 39 93v56c0 6 0 13-1 20-2 8-9 14-17 13z m-134-191c-51 11-88 53-88 102v56c58-9 88-35 88-78v-80z m0 169c-47 11-80 49-80 94v50c53-8 80-32 80-71v-73z m0 153c-43 10-74 45-74 87v46c49-8 74-30 74-66v-67z m0 143c-37 10-64 42-64 78v25 15c43-8 64-27 64-58v-60z m32 60c0 31 21 50 64 58v-15-25c0-36-27-68-64-78v60z m0-136c0 36 25 58 74 66v-46c0-42-31-77-74-87v67z m0-147c0 39 27 63 80 71v-50c0-45-33-83-80-94v73z m89-140c0-49-38-91-89-102v80c0 43 30 69 89 78v-56z m-287 15c-2 0-4 0-7-1 13 19 19 41 19 63v49c0 6 0 12-1 18-1 8-9 14-17 13-3 0-5 0-7-1 10 17 15 36 15 55v25 19 78c0 9-7 16-16 16-8 0-15-7-15-16v-50c-29-4-50-13-64-24v142c0 9-7 16-16 16-9 0-16-7-16-16v-142c-14 11-35 20-64 24v50c0 9-7 16-15 16-9 0-16-7-16-16v-78-19-25c0-19 5-38 15-55-2 1-4 1-7 1-8 1-16-5-17-13-1-6-1-12-1-18v-49c0-22 6-44 19-63-3 1-5 1-7 1-8 1-16-5-17-13-1-6-2-13-2-19v-52c0-32 14-63 37-87 20-20 47-33 75-39v-111c0-9 7-16 16-16 9 0 16 7 16 16v111c28 6 55 19 75 39 23 24 37 55 37 87v52c0 6-1 13-2 19-1 8-9 14-17 13z m-125-177c-47 10-80 48-80 93v51c53-9 80-32 80-71v-73z m0 152c-43 11-74 46-74 87v47c49-8 74-30 74-66v-68z m0 144c-37 10-64 41-64 77v25 15c43-7 64-26 64-58v-59z m32 59c0 32 21 51 64 58v-15-25c0-36-27-67-64-77v59z m0-135c0 36 25 58 74 66v-47c0-41-31-76-74-87v68z m80-127c0-45-33-83-80-93v73c0 39 27 62 80 71v-51z m-1 436c9 0 16 7 16 16v52c0 9-7 16-16 16s-15-7-15-16v-52c0-9 7-16 15-16z m583 0c8 0 15 7 15 16v52c0 9-7 16-15 16-9 0-16-7-16-16v-52c0-9 7-16 16-16z m-291 227c8 0 15 7 15 16v52c0 9-7 16-15 16-9 0-16-7-16-16v-52c0-9 7-16 16-16z" horiz-adv-x="1000" />

<glyph glyph-name="arrow_left" unicode="&#xe816;" d="M1633 176c-154 3-309 0-464 3-2 2-2 4-5 4-14 17-26 36-43 53-28 31-61 59-92 83-36 26-72 52-105 81-31 26-57 62-91 83-2 3-4 0-4-2 7-36 40-69 64-93 33-33 69-62 107-93 36-28 69-57 100-90 7-7 14-17 21-26-4 0-7 0-11 0-89 2-179 7-267 4-43 0-83-2-126-4-38-3-86 0-119-19-7-5-10-12-12-19-3-3-5-3-5-5-14-43-19-91-21-138-77 54-153 112-227 171-19 14-35 29-54 45 2 3 2 3 2 5 0 12-10 19-17 29-7 9-16 19-26 28-5 5-12-2-9-7 4-9 9-19 16-26-14 12-28 24-45 36-33 28-67 57-102 83 2 2 7 7 9 9 5 3 7 5 12 8 5 2 7 4 12 4 7 3 10 8 14 12 0 0 3 3 3 3 0 0 0 0 0-3 7-19 12-38 21-54 10-15 19-34 36-39 5 0 9 3 9 8 0 16-14 28-23 42-12 17-24 31-34 48 0 2-2 2-2 2 19 15 38 31 57 46 7-10 12-22 19-31 17-29 43-50 60-79 28-43 59-112 109-131 7-2 17 7 14 14-7 24-26 41-43 58-21 23-45 47-66 71-22 24-36 60-55 86-7 9-12 19-19 28 38 31 79 62 117 96 43 35 85 73 126 114 24 24 47 45 74 67 7-62 14-124 21-184 0-7 5-12 10-14 2-5 7-7 14-10 86-12 176 0 262 3 86 2 169 5 255 7 21 0 40 2 61 2 20-19 41-38 62-54 27-22 55-58 88-62 8 0 17 4 12 12-14 33-52 52-78 73-14 10-29 22-43 34 52 2 105 4 157 7 86 5 169 14 255 19 12 0 12 17 0 19-91 2-179 9-269 9-86 0-169 0-255-2-88-2-174-5-262-7-76-2-155-2-231-14 10 76 7 147-7 223-5 22-31 29-45 19-91-50-160-135-238-200-46-38-91-73-138-111-46-36-93-72-131-117-38-10-36-79-17-107 36-60 105-103 160-145 61-50 123-96 188-141 62-43 126-91 195-124 14-7 33-2 38 14 0 3 2 5 2 5 3 5 0 14-2 19 5 7 9 12 9 22 5 43 10 88 10 133 179 0 357 2 536 5 88 2 176 0 264 7 64 5 160 10 207 62 0 0 0 2 0 2 14 10 12 31-5 31z m-1209 198c-14 26-38 47-60 69-21 21-40 45-66 59-3 3-7-2-5-4 12-27 33-50 52-74 19-24 38-50 62-67 10-7 22 7 17 17z m40-95c15-19 34-53 60-53 7 0 12 5 12 12 0 24-31 45-45 62-20 21-41 41-62 57-3 3-10-2-8-5 10-28 24-52 43-73z m177-50c9-3 19 7 16 16-7 24-26 41-45 60-19 21-38 43-57 64-38 45-74 93-117 131-5 5-12 0-9-5 21-52 57-100 92-143 20-23 39-47 60-71 17-19 33-43 60-52z m145 2c12-2 24 7 19 19-10 24-31 38-50 55-24 21-45 43-67 64-40 41-78 88-124 122-4 2-9-3-7-8 22-50 64-97 100-138 22-24 43-45 64-66 17-17 36-43 65-48z m47 112c-7 28-35 52-57 74-24 24-45 50-76 66-5 3-9-2-7-7 12-31 36-55 57-81 19-24 41-57 71-69 8 0 15 7 12 17z m84-119c16-10 33 12 21 26-7 10-19 17-28 26-10 10-17 17-27 26-14 17-40-7-26-26 10-9 17-19 29-28 9-7 19-19 31-24z m150 193c-29 21-57 50-91 59-5 3-7-2-5-7 15-31 50-55 74-76 24-22 50-55 81-60 7-2 19 5 15 15-12 28-50 47-74 69z m183-150c-17 12-31 26-45 38-14 14-36-7-22-22 15-14 31-28 48-40 14-12 31-29 50-29 10 0 14 10 10 17-8 17-27 26-41 36z m119 24c-19 19-45 33-67 47-26 19-47 38-71 60-40 35-83 71-131 90-5 3-7-5-5-7 43-43 86-88 131-129 36-33 84-78 136-83 9-2 14 12 7 22z" horiz-adv-x="1667" />

<glyph glyph-name="arrow_next_step" unicode="&#xe817;" d="M168 367c3-1 6 2 5 6-2 3-3 6-6 7-2 2-3 3-6 5 0 0 0 1-2 1-1 2-4 0-2-1v-2c-2-3 1-5 2-8 3-5 6-6 9-8z m26-20c-4 7-14 0-11-7 3-4 7-10 10-15 4-4 8-8 14-5 2 0 3 1 3 3 0 5-4 8-7 11-3 4-6 9-9 13z m-11 42c8-13 21-23 33-35 10-10 20-26 35-31 3-2 6 1 4 4-4 14-19 26-29 36-11 12-25 25-39 32-3 1-6-3-4-6z m43 19c-3 1-4-1-3-4 12-21 34-38 50-54 4-4 11 3 7 7-18 18-34 39-54 51z m-61-70c-3 8-8 12-14 18-7 7-13 13-22 19-3 1-6-2-4-3 5-7 11-15 19-21 5-5 11-13 18-15 2-2 3 1 3 2z m109 77c-1 2-3-1-3-3 6-13 17-24 28-36 10-11 21-27 36-35 3-1 7 2 6 6-6 13-21 23-31 35-10 12-22 25-36 33z m48 8c-2 1-6 0-5-3 8-15 19-31 32-41 8-6 15-12 21-19 4-6 10-11 16-16 4-3 8 3 5 7-4 6-10 11-16 15-4 3-8 6-11 9-3 3-5 8-7 11-9 13-22 28-35 37z m71-16c-9 10-18 23-29 31-2 2-3-1-3-2 3-13 14-27 23-37s17-23 29-29c3-1 9 2 7 6-5 12-19 20-27 31z m43-47c-3 2-7 5-10 6-3 0-6-1-4-4s4-6 7-9c3-3 6-6 9-7 4-2 10 3 7 7-1 3-6 4-9 7z m-26 83c-3 1-7 0-6-5 8-17 21-33 32-47 13-16 28-34 45-42 5-3 9 2 6 7-9 17-23 30-36 43-12 16-25 32-41 44z m74-15c-9 9-19 18-30 23-3 2-6-1-5-4 6-10 15-19 22-27 7-9 16-21 26-25 4-1 12 3 9 7-3 10-13 19-22 26z m55-58c-6 6-10 10-16 16-7 8-17-4-10-11 6-6 10-10 16-16 4-5 9-10 16-10 3 0 6 2 6 5-2 8-7 12-12 16z m-36 87c-2 2-4 0-3-3 13-21 30-39 46-58 9-10 18-18 27-29 7-8 13-17 24-18 3 0 7 1 6 5-2 11-6 13-12 21-10 10-18 20-29 30-20 18-37 38-59 52z m96-34c-11 10-21 21-34 30-1 1-4-2-3-3 6-13 16-25 26-36 9-10 21-25 35-28 3 0 7 3 6 6-7 13-22 20-30 31z m40-47c-6 4-10-4-7-9 7-11 17-23 27-31 8-6 19 2 14 10-12 11-22 23-34 30z m-16 62c-3 2-4-1-3-2 12-22 32-38 50-56 16-17 31-42 52-53 4-3 11 3 8 7-8 22-31 39-47 55-18 19-37 39-60 49z m63-4c-3 2-6 0-5-3 10-19 25-36 39-52 12-12 25-33 42-33 2 0 3 1 3 4-1 16-21 29-32 41-14 13-30 30-47 43z m165-162c-19 22-41 43-61 64-7 7-17-5-10-12 20-22 40-44 61-64 7-6 16 5 10 12z m-54-3c-3 1-6-2-4-4 3-5 6-9 10-14 3-2 7-8 13-8 4 0 7 3 6 7-2 4-7 9-10 12-5 3-9 5-15 7z m-46 145c-2 0-3-2-2-2 13-17 29-32 44-46 14-13 32-35 49-42 6-1 10 3 7 9-10 17-32 32-48 43-14 15-31 29-50 38z m124-99c-5 10-18 0-14-8 6-11 16-22 29-24 6-1 10 6 6 11-8 5-15 11-21 21z m-55 87c12-22 32-39 50-55 18-16 37-35 59-45 7-3 12 5 7 10-17 19-39 34-58 50-17 14-36 32-56 43-2 0-3-1-2-3z m79-20c1 0 4 1 4 4-2 12-15 19-22 25-10 9-20 17-32 23-1 2-3-1-3-3 6-11 15-23 25-32 7-7 16-19 28-17z m27-28c2 0 2 2 2 2 1 3 0 4-2 7-4 4-10 9-14 13-5 3-9-1-6-6 4-4 9-10 13-14 3-3 6-3 7-2z m83-62c0 2 0 3-2 4-39 76-88 148-137 216-6 9-16 8-22-1-9-13-18-26-23-42-6-9-10-18-13-26-18 7-35 13-53 17l0 0c-17 7-37 10-55 13-4 2-8 3-14 3-45 9-90 13-135 15-13 0-25 0-38 0-17 0-33 0-50-2-106-6-209-29-306-68-58-20-109-48-157-81-4-3 0-9 5-6 178 97 385 148 590 132 29-3 56-6 84-10 4-2 8-2 13-3 19-4 37-9 56-15 21-5 41-13 63-18 1-5 7-5 10 0 13 20 21 43 34 63 22-29 42-59 63-89 20-32 40-66 59-99-71-32-145-61-217-90 6 29 13 57 24 83l0 0c3 6 2 14-7 16-58 17-117 24-178 27-2 0-3 0-4 0-34 3-69 5-103 5-60 0-121-6-180-18-10-1-20-3-29-4-23-5-45-10-67-18s-46-17-65-31c-4-3-1-11 4-9 24 6 45 14 67 20 23 6 47 7 70 10 46 5 94 6 140 6 108 2 216 3 319-30-7-24-13-48-17-73 0-1 0-4 1-6-1-3-1-5-3-10-1-7 6-11 12-10 64 16 123 44 184 68 14 6 29 12 42 18 12 4 27 8 35 18 8 11 6 19 0 25z" horiz-adv-x="1014" />

<glyph glyph-name="arrow_right" unicode="&#xe818;" d="M36 176c155 3 309 0 464 3 2 2 2 2 5 4 14 17 26 36 43 53 28 31 62 59 93 83 35 26 71 52 104 81 31 26 57 62 91 83 2 3 5 0 5-2-8-36-41-69-65-93-33-33-69-62-107-93-36-28-69-57-100-90-7-7-14-17-21-26 4 0 7 0 12 0 88 2 178 7 266 4 43 0 84-2 126-4 39-3 86 0 119-19 8-5 10-12 12-19 3-3 5-3 5-5 14-43 19-91 22-138 76 54 152 112 226 171 19 14 35 29 55 45-3 3-3 3-3 5 0 12 10 19 17 29 7 9 16 19 26 28 5 5 12-2 10-7-5-9-10-19-17-26 14 12 28 24 45 36 33 28 67 57 102 83-2 2-7 7-9 9-5 3-7 5-12 8-5 2-7 4-12 4-7 3-9 8-14 12 0 0-3 3-3 3 0 0 0 0 0-3-7-19-11-38-21-54-9-15-19-34-36-39-4 0-9 3-9 8 0 16 14 28 24 42 12 17 23 31 33 48 0 2 2 2 2 2-19 15-38 31-57 46-7-10-12-22-19-31-17-29-43-50-59-79-29-43-60-112-110-131-7-2-17 7-14 14 7 24 26 41 43 58 21 23 45 47 66 71 22 24 36 60 55 86 7 9 12 19 19 28-38 31-78 62-117 96-42 35-85 73-126 114-24 24-47 45-74 67-7-62-14-124-21-184 0-7-5-12-9-14-3-5-8-7-15-10-85-12-176 0-262 3-85 2-169 5-254 7-22 0-41 2-62 2-19-19-41-38-62-54-26-22-55-58-88-62-7 0-17 4-12 12 14 33 52 52 78 73 15 10 29 22 43 34-52 2-105 4-157 7-86 5-169 16-255 21-12 0-12 17 0 19 91 3 179 10 269 10 86 0 169 0 255-3 88-2 174-4 262-7 76-2 155-2 231-14-10 76-7 148 7 224 5 21 31 28 45 19 91-50 160-136 238-200 46-38 91-74 139-112 45-36 92-71 130-117 39-9 36-78 17-107-36-59-105-102-159-145-62-50-124-95-188-141-62-43-127-90-196-123-14-8-33-3-38 14 0 2-2 5-2 5-3 4 0 14 2 19-5 7-9 12-9 21-5 43-10 88-10 133-178 0-357 3-536 5-88 3-176 0-264 7-64 5-159 10-207 62 0 0 0 3 0 3-14 7-12 28 5 28z m1209 198c15 26 38 47 60 69 21 21 40 45 66 59 3 3 8-2 5-4-12-27-33-50-52-74-19-24-38-50-62-67-10-7-21 7-17 17z m-40-95c-14-19-34-53-60-53-7 0-12 5-12 12 0 24 31 45 46 62 19 21 40 41 62 57 2 3 9-2 7-5-10-28-24-52-43-73z m-176-50c-10-3-19 7-17 16 7 24 26 41 45 60 19 21 38 43 57 64 38 45 74 93 117 131 5 5 12 0 10-5-22-52-58-100-93-143-19-23-38-47-60-71-17-19-33-43-59-52z m-146 2c-12-2-23 7-19 19 10 24 31 38 50 55 24 21 46 43 67 64 40 41 79 88 124 122 5 2 9-3 7-8-21-50-64-97-100-138-21-24-43-45-64-66-17-17-36-43-65-48z m-47 112c7 28 35 52 57 74 24 24 45 50 76 66 5 3 10-2 7-7-12-31-35-55-55-78-19-24-40-57-71-69-9-3-17 4-14 14z m-84-119c-16-10-33 12-21 26 7 10 19 17 29 26 9 10 16 17 26 26 14 17 40-7 26-26-10-9-17-19-29-28-9-7-21-19-31-24z m-150 193c29 21 58 50 91 59 5 3 7-2 5-7-15-31-50-55-74-76-24-22-50-55-81-60-7-2-19 5-14 15 12 28 47 47 73 69z m-183-150c17 12 31 26 45 38 15 14 36-7 22-22-15-14-31-28-48-40-14-12-31-29-50-29-9 0-14 10-9 17 4 17 26 26 40 36z m-119 24c19 19 45 33 67 47 26 19 47 38 71 60 41 35 83 71 131 90 5 3 7-5 5-7-43-43-86-88-131-129-36-33-83-78-136-83-9-2-14 12-7 22z" horiz-adv-x="1667" />

<glyph glyph-name="barrel" unicode="&#xe819;" d="M959 89c21 86 31 173 31 261 0 170-39 340-114 492-2 5-8 8-13 8 0 0-94 0-94 0h-642c-5 0-10-3-13-8-75-152-114-322-114-492 0-88 11-175 31-261 0-1 1-3 1-4 19-78 47-155 82-227 3-5 8-8 13-8h736c5 0 11 3 13 8 35 72 63 149 82 227 1 1 1 3 1 4z m-27 16h-85c3 17 5 33 7 50 48 6 84 46 84 95 0 8-1 16-3 24-2 8-10 12-18 10s-13-10-11-18c2-5 2-11 2-16 0-37-30-67-66-67 0 0 0 0 0 0h0c-37 0-67 30-67 67 0 36 30 66 67 66h0 0c13 0 25-3 36-11 7-4 16-2 21 5 4 7 2 16-5 20-8 6-17 10-27 13 1 84-6 169-20 252h85c19-81 28-163 28-245s-9-164-28-245z m-559-142c3-28 6-56 9-83h-150c-10 27-19 55-27 83z m30 0h184c-3-28-6-56-9-83h-166c-3 27-6 55-9 83z m205-83c3 27 6 55 9 83h168c-8-28-17-56-27-83z m-518 113c-9 27-18 55-25 83h175c8 0 14 6 14 15 0 8-6 14-14 14h-67c-27 161-27 329 0 490h189c-9-161-9-329 0-490h-63c-8 0-15-6-15-14 0-9 7-15 15-15h626c-7-28-15-56-25-83z m527 744c-3 28-6 56-9 83h150c10-27 19-55 27-83z m-30 0h-184c3 28 6 56 9 83h166c3-27 6-55 9-83z m-205 83c-3-27-6-55-9-83h-168c8 28 17 56 27 83z m518-113c10-27 18-55 25-83h-860c7 28 16 56 25 83z m-62-361h-55c-53 0-96-43-96-96 0-53 43-96 96-96h41c-2-16-4-33-7-49h-189c9 161 9 329 0 490h189c14-82 21-165 21-249z m-67-31c-16-17-25-40-25-65 0-25 9-48 25-65-31 5-54 32-54 65 0 32 23 59 54 65z m-379-210c-10 161-10 329 0 490h206c10-161 10-329 0-490z m497 632h-73c-8 28-17 56-26 83h63c14-27 26-55 36-83z m-752 83h63c-9-27-18-55-26-83h-73c11 28 23 56 36 83z m-79-225h85c-27-161-27-329 0-490h-85c-19 81-28 163-28 245s9 164 28 245z m43-632h73c8-28 17-56 26-83h-63c-13 27-25 55-36 83z m752-83h-63c9 27 18 55 26 83h73c-10-28-22-56-36-83z m0 0m-372 780c5-12 23-12 28 0 2 5 1 12-3 16-5 5-13 6-19 2-6-3-8-11-6-18z m0 0m-207-9c7 0 13 4 15 11 1 5-1 12-6 16-11 7-26-3-23-16 2-6 8-11 14-11z m0 0m593 9c5-11 22-12 27-1 3 5 2 12-2 17-4 5-12 6-18 3-6-4-9-12-7-19z m0 0m-773 3c2-6 6-11 12-12 7-1 13 2 16 7 3 6 2 13-2 17-4 5-11 7-17 4-6-2-10-9-9-16z m0 0m409-616c-11 7-26-3-22-16 1-6 7-11 13-11 6-1 12 3 15 9 2 6 0 14-6 18z m0 0m-220 0c-12 8-27-4-23-17 4-13 22-14 28-2 3 7 1 15-5 19z m0 0m441 0c-11 7-27-4-22-17 1-5 6-9 12-10 6-1 13 3 15 9 3 6 1 14-5 18z m0 0m0 631c-11 8-27-4-22-17 1-5 6-9 12-10 6-1 13 3 15 9 3 6 1 14-5 18z m0 0m172-641c-1 6-6 11-12 12-6 1-13-2-16-7-3-6-2-12 2-17 4-5 11-7 17-4 6 3 10 10 9 16z m0 0m-773 3c-5 12-24 12-28 0-2-6 0-13 5-17 5-4 11-4 17-1 6 4 8 12 6 18z m0 0" horiz-adv-x="1000" />

<glyph glyph-name="barrels" unicode="&#xe81a;" d="M925 354c-63 62-149 86-230 71 39 45 62 104 62 168 0 47-13 94-38 134-4 7-13 9-20 5-7-4-9-13-4-20 21-36 33-77 33-119 0-126-102-228-228-228-126 0-228 102-228 228 0 125 102 228 228 228 58 0 113-22 155-61 6-6 15-5 21 1 5 6 5 15-1 20-48 45-110 69-175 69-142 0-257-115-257-257 0-64 23-123 62-168-81 15-167-9-230-71-48-49-75-113-75-182 0-69 27-133 75-182 51-50 116-75 182-75s132 25 182 75c28 28 48 60 61 96 13-36 33-68 61-96 50-50 116-75 182-75 66 0 132 25 182 75 48 49 75 113 75 182 0 69-27 133-75 182z m-377-14c-21-25-37-52-48-82-10 30-26 57-47 82 15-3 31-5 47-5s32 2 48 5z m-129-329c-45-45-103-67-162-67-58 0-116 22-161 67-43 43-67 100-67 161 0 61 24 118 67 161 45 45 103 67 161 67 59 0 117-22 162-67 43-43 66-100 66-161 0-61-23-118-66-161z m485 0c-89-89-234-89-323 0-43 43-66 100-66 161 0 61 23 118 66 161 45 45 103 67 162 67s117-22 161-67c43-43 67-100 67-161 0-61-24-118-67-161z m0 0m-25 297c-27 27-60 44-95 52-1 0-2 1-3 1-61 12-127-5-174-53-37-36-57-84-57-136 0-51 20-100 57-136 26-27 59-44 94-52 1 0 2-1 4-1 12-2 25-4 38-4 49 0 98 19 136 57 36 36 56 85 56 136 0 52-20 100-56 136z m-241-261l230 230c16-19 27-40 33-63l-200-200c-22 6-44 17-63 33z m-53 84l199 199c23-6 44-17 63-33l-230-230c-15 19-26 41-32 64z m42 157c32 31 74 47 116 47 1 0 3 0 5 0l-168-168c-1 2-1 3-1 5 0 44 17 85 48 116z m231-231c-33-34-77-49-120-48l168 168c0-1 0-3 0-5 0-44-17-85-48-115z m0 0m4 154l-12 11c-5 6-15 6-20 0s-6-15 0-20l11-12c3-3 7-4 10-4s8 1 11 4c5 6 5 15 0 21z m0 0m-563 149c-1 0-2 1-3 1-62 12-128-5-175-53-36-36-56-84-56-136 0-51 20-100 56-136 27-27 60-44 95-52 1 0 2-1 3-1 13-2 26-4 38-4 50 0 99 19 137 57 36 36 56 85 56 136 0 52-20 100-56 136-27 27-60 44-95 52z m-146-313l230 230c15-19 26-40 32-63l-199-200c-23 6-44 17-63 33z m-54 84l200 199c22-6 44-17 63-33l-230-230c-16 19-27 41-33 64z m43 157c32 31 74 47 115 47 2 0 4 0 5 0l-168-168c0 2 0 3 0 5 0 44 17 85 48 116z m231-231c-33-34-77-49-121-48l169 168c0-1 0-3 0-5 0-44-17-85-48-115z m0 0m3 154l-11 11c-6 6-15 6-21 0-5-5-5-15 0-20l12-12c3-3 6-4 10-4s8 1 10 4c6 6 6 15 0 21z m0 0m230 542c0 1-1 1-2 2-30 19-66 30-104 30s-74-11-104-30c-1-1-2-1-2-2-52-34-87-93-87-160 0-67 35-126 87-161 0 0 1-1 2-1 30-20 66-31 104-31 38 0 74 11 104 31 1 0 2 1 2 1 52 35 87 94 87 161 0 67-35 126-87 160z m-121-323c-24 2-47 10-67 22v282c20 12 43 19 67 21z m30 325c24-2 47-9 67-21v-282c-20-12-43-20-67-22z m-178-162c0 47 20 89 51 119v-238c-31 30-51 72-51 119z m275-119v238c31-30 51-72 51-119 0-47-20-89-51-119z m0 0m-55 230h-16c-9 0-15-6-15-14 0-8 6-15 15-15h16c8 0 14 7 14 15 0 8-6 14-14 14z m0 0" horiz-adv-x="1000" />

<glyph glyph-name="bottles" unicode="&#xe81b;" d="M403 465c-27 28-41 67-35 106l1 10c4 28 1 57-10 83l-25 64c9-8 21-9 31-5 11 5 19 16 19 28v40c0 33-27 59-59 59h-140c-33 0-59-26-59-59v-40c0-12 7-23 19-28 7-3 16-3 23 0l-23-59c-11-26-14-55-10-83l1-10c5-39-8-78-35-106-31-31-48-72-48-115v-419c0-45 36-81 81-81h236c45 0 81 36 81 81v419c0 43-17 84-48 115z m-238 302v24h0c0 11 9 20 20 20h140c11 0 20-9 20-20v-24c-17 7-36 3-49-10-2-2-4-2-5-2s-2 0-4 2c-9 9-21 13-32 13-12 0-23-4-32-13-2-1-4-2-5-2s-2 0-4 2c-13 13-33 17-49 10z m-57-356h88c10 0 19 8 19 19s-9 20-19 20h-57c29 35 42 81 36 126l-2 10c-3 22 0 44 8 64l27 67c3 0 7-1 10-1 13 0 24 5 32 13 3 3 7 3 9 0 9-8 20-13 32-13 2 0 4 0 5 1l27-67c8-20 11-42 8-64l-2-10c-7-50 10-102 47-138 18-19 30-43 34-68h-317c3 14 8 28 15 41z m304-480c0-23-19-42-42-42h-236c-23 0-42 19-42 42v24h320v-24z m0 63h-320v337h320v-337z m-160 274c-58 0-106-47-106-105s48-106 106-106 105 47 105 106-47 105-105 105z m0-172c-37 0-66 30-66 67s29 66 66 66 66-30 66-66-29-67-66-67z m647 369c-27 28-40 67-35 106l2 10c4 28 0 57-11 83l-25 64c9-7 21-9 31-5 12 5 19 16 19 28v40c0 33-26 59-59 59h-140c-32 0-59-26-59-59v-40c0-12 7-23 19-28 7-3 16-3 23 0l-23-59c-11-26-14-55-10-83l1-10c6-39-8-78-35-106-31-31-48-72-48-115v-419c0-45 36-81 81-81h236c45 0 81 36 81 81v419c0 43-17 84-48 115z m-238 302v24h0c0 11 9 20 20 20h140c11 0 20-9 20-20v-24c-16 7-36 3-49-10-2-2-4-2-4-2s-3 0-5 2c-9 9-20 13-32 13-12 0-23-4-32-13-2-2-3-2-4-2s-3 0-5 2c-13 13-32 17-49 10z m247-836c0-23-19-42-42-42h-236c-23 0-42 19-42 42v24h320v-24z m0 63h-320v337h172c11 0 19 8 19 19s-8 20-19 20h-170c4 25 16 49 35 68 36 36 53 88 46 138l-2 10c-3 22 0 44 8 64l27 67c3 0 7-1 11-1 12 0 23 5 32 13 2 3 6 3 8 0 9-8 20-13 33-13 1 0 3 0 5 1l26-67c8-20 11-42 8-64l-2-10c-7-50 11-102 47-138 23-24 36-55 36-88v-356z m-50 370c-3 3-8 6-14 6s-10-3-13-6c-4-4-6-9-6-14 0-5 2-10 6-14 3-3 8-5 13-5 6 0 11 2 14 5 4 4 6 9 6 14s-2 10-6 14z m-110-96c-58 0-105-47-105-105s47-106 105-106c58 0 106 47 106 106s-48 105-106 105z m0-172c-36 0-66 30-66 67s30 66 66 66 67-30 67-66-30-67-67-67z m-470 354h0c-11 0-20-9-20-20s9-19 20-19h0c11 0 20 8 20 19s-9 20-20 20z" horiz-adv-x="1000" />

<glyph glyph-name="barrel-1" unicode="&#xe81f;" d="M922 78c30 84 46 178 46 272 0 94-16 188-46 272 6 0 11 4 15 9 3 5 4 12 2 17l-38 93c-3 7-10 12-18 12h-25c-21 34-45 64-71 91-4 4-9 6-14 6h-546c-5 0-10-2-13-6-27-27-50-57-72-91h-25c-8 0-15-5-17-12l-38-93c-3-5-2-12 1-17 4-5 9-9 15-9-30-84-46-178-46-272 0-94 16-188 46-272-6 0-11-3-15-9-3-5-4-11-1-17l38-93c2-7 9-12 17-12h25c22-34 45-64 72-91 3-4 8-6 13-6h546c5 0 10 2 14 6 26 27 50 57 71 91h25c8 0 15 5 18 12l38 93c2 6 1 12-2 17-4 6-9 9-15 9z m-41 0h-68c22 84 34 178 34 272 0 94-12 188-34 272h68c32-83 49-177 49-272 0-95-17-189-49-272z m-654 0c-24 83-36 177-36 272 0 95 12 189 36 272h135c-8-70-13-146-14-225-34-11-58-43-58-81 0-38 25-70 60-80 2-55 6-108 12-158h-135z m147 192c-26 0-47 21-47 46s21 47 47 47 46-21 46-47-21-46-46-46z m26-192c-6 49-10 101-12 155 40 7 70 42 70 83 0 43-31 78-72 84 1 78 6 153 14 222h200c10-83 14-177 14-272 0-95-4-188-14-272h-200z m238 544h136c23-83 35-177 35-272 0-95-12-189-35-272h-136c10 84 14 177 14 272 0 95-4 188-14 272z m174 131h-46c-10 21-20 41-32 59h31c17-18 33-38 47-59z m-88 0h-105c-4 21-9 41-13 59h83c13-18 24-38 35-59z m-157 59c4-18 9-38 13-59h-160c4 21 9 41 13 59h134z m-173 0c-4-18-9-38-13-59h-105c11 21 23 41 35 59h83z m-159 0h31c-12-18-22-38-32-59h-46c14 21 30 41 47 59z m-105-97h740l23-55h-786l23 55z m-11-93h68c-22-84-34-178-34-272 0-94 12-188 34-272h-68c-32 83-49 177-49 272 0 95 17 189 49 272z m69-675h46c10-21 20-41 32-59h-31c-17 18-33 38-47 59z m88 0h105c4-21 9-41 13-59h-83c-12 18-24 38-35 59z m157-59c-4 18-9 38-13 59h160c-4-21-9-41-13-59h-134z m173 0c4 18 9 38 13 59h105c-11-21-22-41-35-59h-83z m159 0h-31c12 18 22 38 32 59h46c-14-21-30-41-47-59z m105 97h-740l-23 55h786l-23-55z" horiz-adv-x="1000" />

<glyph glyph-name="keg" unicode="&#xe820;" d="M950-50v167c0 0 0 1 0 1 0 1-1 2-1 3 0 1-1 2-1 3 0 1 0 1 0 1l-84 134c-5 8-15 10-23 5-8-5-10-15-5-23l68-108h-54c-18 0-33-15-33-33v-17h-67v37c20 7 33 25 33 46 0 22-13 40-33 47v207c20 7 33 26 33 47s-13 40-33 47v172c23 8 37 32 33 56s-25 41-50 41h-183v17c0 28-22 50-50 50h-167c-27 0-50-22-50-50v-17h-183c-24 0-45-17-49-41s9-47 32-55v-173c-19-7-33-26-33-47s14-40 33-47v-206c-19-7-33-26-33-47 0-21 14-40 33-47v-173c-22-8-36-31-32-55 4-24 25-42 49-42h633c25 0 46 18 50 42 4 24-10 47-33 55v37h67v-34c0-1 0-2 0-3 0-1 0-2 1-3l27-68c6-16 21-26 38-26 17 0 32 10 39 26l27 68c0 1 0 2 0 3 0 1 1 2 1 3v0z m-100 150h67v-133h-67v133z m-533 700c0 9 7 17 16 17h167c9 0 17-8 17-17v-17h-200v17z m-217-50h633c10 0 17-7 17-17s-7-16-17-16h-633c-9 0-17 7-17 16s8 17 17 17z m0-267h117c9 0 16 8 16 17s-7 17-16 17h-100v166h600v-166h-400c-10 0-17-8-17-17s7-16 17-16h416c9 0 17-8 17-17s-8-17-17-17h-633c-9 0-17 8-17 17s8 16 17 16z m0-300h117c9 0 16 8 16 17s-7 17-16 17h-100v200h600v-200h-400c-10 0-17-8-17-17s7-17 17-17h416c9 0 17-7 17-16 0-9-8-17-17-17h-633c-9 0-17 8-17 17 0 9 8 16 17 16z m633-300h-633c-9 0-17 8-17 17s8 17 17 17h117c9 0 16 7 16 16 0 9-7 17-16 17h-100v166h600v-166h-400c-10 0-17-8-17-17 0-9 7-16 17-16h416c9 0 17-8 17-17s-7-17-17-17z m17 134v33h67v-33h-67z m126-129l-18 45h51l-18-45c-1-3-4-4-8-4-3 0-6 1-7 4z m-721 774c-3-3-5-7-5-12 0-2 0-4 1-6 1-2 2-4 4-6 7-6 17-6 24 0 1 2 2 4 3 6 1 2 1 4 1 6 0 7-4 13-10 15-6 3-13 2-18-3z m12-45c-10 0-17-8-17-17v-33c0-10 7-17 17-17s16 7 16 17v33c0 9-7 17-16 17z m-12-238c-3-4-5-8-5-12 0-2 0-5 1-7 1-2 2-4 4-5 7-7 17-7 24 0 1 1 2 3 3 5 1 2 1 5 1 7 0 6-4 13-10 15-6 3-13 1-18-3z m12-46c-10 0-17-7-17-16v-34c0-9 7-16 17-16s16 7 16 16v34c0 9-7 16-16 16z m-12-238c-3-3-5-7-5-12 0-2 0-4 1-6 1-2 2-4 4-5 7-7 17-7 24 0 1 1 2 3 3 5 1 2 1 4 1 6 0 7-4 13-10 16s-13 1-18-4z m12-45c-10 0-17-7-17-17v-33c0-9 7-17 17-17s16 8 16 17v33c0 10-7 17-16 17z" horiz-adv-x="1000" />

<glyph glyph-name="layers" unicode="&#xe821;" d="M1000 350c0 21-12 40-31 50l-74 37 74 37c0 0 0 0 0 0 19 10 31 29 31 50 0 21-12 40-31 49l-420 210c-31 16-67 16-98 0l-420-210c-19-9-31-28-31-49 0-21 12-40 31-50l74-37-74-37c-19-10-31-29-31-50s12-40 31-50l74-37-74-37c-19-9-31-28-31-50 0-21 12-40 31-49l420-210c15-8 32-12 49-12 17 0 34 4 49 12l420 210c19 9 31 28 31 49 0 22-12 41-31 50l-74 37 74 37c19 10 31 29 31 50z m-949 165c-4 3-5 7-5 9s1 6 5 8l421 210c9 5 18 7 28 7 10 0 20-2 29-7l420-210c4-2 5-6 5-8s-1-6-5-9l-420-210c-18-9-40-9-57 0l-421 210z m898-330c4-2 5-6 5-9 0-2-1-6-5-8l-420-210c-18-9-40-9-57 0l-421 210c-4 2-5 6-5 8 0 3 1 7 5 9l106 53 294-148c15-7 32-11 49-11 17 0 34 4 49 11l295 148 105-53z m0 157l-420-211c-18-9-40-9-57 0l-421 211c-4 2-5 6-5 8 0 2 1 6 5 9l106 52 294-147c15-8 32-12 49-12 17 0 34 4 49 12l295 147 105-52c4-3 5-7 5-9 0-2-1-6-5-8z" horiz-adv-x="1000" />

<glyph glyph-name="responsive" unicode="&#xe822;" d="M932 759h-773c-38 0-68-29-68-68v-227c0-14 9-23 23-23s22 9 22 23v227c0 14 10 23 23 23h773c14 0 23-9 23-23v-545c0-14-9-23-23-23h-546c-13 0-22-9-22-23s9-23 22-23h46v-68c0-14-9-23-23-23h-23c-13 0-22-9-22-22s9-23 22-23h319c13 0 22 9 22 23s-9 22-22 22h-23c-14 0-23 9-23 23v68h273c39 0 68 30 68 69v545c0 39-29 68-68 68z m-459-773c2 7 4 14 4 23v68h137v-68c0-9 2-16 4-23h-145z m413 273h-500c-13 0-22-9-22-23s9-22 22-22h500c14 0 23 9 23 22s-9 23-23 23z m-636 137h-182c-38 0-68-30-68-69v-318c0-39 30-68 68-68h182c39 0 68 29 68 68v318c0 39-29 69-68 69z m23-387c0-14-9-23-23-23h-182c-13 0-22 9-22 23v318c0 14 9 23 22 23h182c14 0 23-9 23-23v-318z" horiz-adv-x="1000" />

<glyph glyph-name="settings" unicode="&#xe823;" d="M642 130c-10 6-21 13-32 19 3 21 3 43 0 65 11 6 22 12 32 19 18 10 25 33 17 52 0 0 0 0 0 0l-23 55c-7 19-28 30-48 25-12-3-24-6-36-9-14 17-29 32-46 46 3 12 6 24 9 36 5 20-6 41-25 48l-55 23c-19 8-42 1-52-17-7-10-13-21-19-32-22 3-44 3-65 0-6 11-13 22-19 32-11 18-33 25-52 17l-56-23c-19-7-29-28-24-48 3-12 6-24 9-36-17-14-32-29-46-46-12 3-24 6-36 9-20 5-41-6-49-25l-23-55c-8-19 0-42 17-52 11-7 22-13 32-19-2-22-2-44 0-65-10-6-21-13-32-19-17-11-25-33-17-52l23-56c8-19 29-29 49-24 12 3 24 6 36 9 14-17 29-33 46-46-3-12-6-24-9-36-5-20 5-41 24-49l56-23c5-2 10-3 16-3 14 0 28 7 36 20 6 11 12 21 19 32 21-2 43-2 65 0 6-11 12-21 19-32 10-17 33-25 52-17l55 23c19 8 30 29 25 49-3 12-6 24-9 36 17 13 32 29 46 46 12-3 24-6 36-9 20-5 41 5 48 24l23 56c8 19 1 41-17 52z m-46-88c-11 3-23 6-35 9-16 4-33-2-44-15-11-15-25-29-41-41-13-10-19-28-14-44 3-12 6-23 9-34l-51-22c-6 11-12 21-18 31-9 15-25 23-42 21-19-2-38-2-58 0-16 2-33-6-41-21-6-10-12-21-18-31l-51 22c3 11 6 23 9 34 4 16-2 34-15 44-15 12-29 26-41 41-10 13-27 19-44 15-11-3-23-6-34-9l-22 51c11 6 21 12 31 18 15 8 23 25 21 41-2 20-2 39 0 58 2 17-6 33-21 42-10 6-20 12-31 18l22 51c11-3 23-6 34-9 17-5 34 1 44 14 12 16 26 30 41 41 13 11 19 28 15 44-3 12-6 24-9 35l51 21c6-10 12-20 18-31 8-14 25-23 41-20 20 2 39 2 58 0 17-3 33 6 42 20 6 11 12 21 18 31l51-21c-3-11-6-23-9-35-5-16 1-33 14-44 16-11 30-25 41-41 11-13 28-19 44-14 12 3 24 6 35 9l21-51c-10-6-20-12-31-18-14-9-23-25-20-42 2-19 2-38 0-58-3-16 6-33 20-41 11-6 21-12 31-18l-21-51z m-124 198c0 0 0 0 0 0-32 77-121 114-199 82-78-32-115-121-83-199 16-38 45-67 83-83 19-7 39-11 58-11s40 4 59 11c77 33 114 122 82 200z m-99-158c-27-11-56-11-83 0-27 11-47 31-58 58-23 55 3 118 58 141 14 5 27 8 41 8 42 0 83-25 100-66 23-55-4-119-58-141z m597 571c-8 1-16 2-24 3-4 14-9 27-16 39 5 6 10 13 15 19 10 14 8 34-4 46l-31 31c-12 12-32 14-46 4-6-5-13-10-19-15-12 7-25 12-39 16-1 8-2 16-3 24-3 17-18 30-35 30h-44c-17 0-32-13-35-30-1-8-2-16-3-24-14-4-27-9-39-16-6 5-13 10-19 15-14 10-34 8-46-4l-31-31c-12-12-14-32-4-46 5-6 10-13 15-19-7-12-12-25-16-39-8-1-16-2-24-3-17-3-30-18-30-35v-44c0-17 13-32 30-35 8-1 16-2 24-3 4-14 9-27 16-39-5-6-10-13-15-19-10-14-8-34 4-46l31-31c12-12 32-14 46-4 6 5 13 10 19 15 12-7 25-12 39-16 1-8 2-16 3-24 3-17 18-30 35-30h44c17 0 32 13 35 30 1 8 2 16 3 24 14 4 27 9 39 16 6-5 13-10 19-15 14-10 34-8 46 4l31 31c12 12 14 32 4 46-5 6-10 13-15 19 7 12 12 25 16 39 8 1 16 2 24 3 17 3 30 18 30 35v44c0 17-13 32-30 35z m-12-73c-7-1-15-2-22-3-14-2-26-12-29-25-4-14-9-26-16-38-7-13-6-28 3-39 4-6 8-12 13-17l-23-23c-5 5-11 9-17 13-11 9-26 10-39 3-12-7-24-12-38-16-13-3-23-15-25-29-1-7-2-15-3-22h-32c-1 7-2 15-3 22-2 14-12 26-25 29-14 4-26 9-38 16-13 7-28 6-39-3-6-4-12-8-17-13l-23 23c5 5 9 11 13 17 9 11 10 26 3 39-7 12-12 24-16 38-3 13-15 23-29 25-7 1-15 2-22 3v32c7 1 15 2 22 3 14 2 26 12 29 25 4 14 9 26 16 38 7 13 6 28-3 39-4 6-8 12-13 17l23 23c5-5 11-9 17-13 11-9 26-10 39-3 12 7 24 12 38 16 13 3 23 15 25 29 1 7 2 15 3 22h32c1-7 2-15 3-22 2-14 12-26 25-29 14-4 26-9 38-16 13-7 28-6 39 3 6 4 12 8 17 13l23-23c-5-5-9-11-13-17-9-11-10-26-3-39 7-12 12-24 16-38 3-13 15-23 29-25 7-1 15-2 22-3v-32z m-212 107c-50 0-91-41-91-91 0-50 41-91 91-91s91 41 91 91c0 50-41 91-91 91z m0-141c-28 0-50 22-50 50 0 28 22 50 50 50 28 0 50-22 50-50 0-28-22-50-50-50z" horiz-adv-x="1000" />

<glyph glyph-name="shopping-bag" unicode="&#xe824;" d="M900-17l-58 649c-1 13-12 22-25 22h-121c0 108-88 196-196 196s-196-88-196-196h-121c-13 0-24-9-25-22l-57-649c0-1 0-1 0-2 0-72 66-131 148-131h503c81 0 148 59 148 131 0 1 0 1 0 2z m-400 817c81 0 146-65 146-146h-292c0 81 66 146 146 146z m252-900h-503c-54 0-98 36-99 80l56 625h98v-87c0-14 11-25 25-25s25 11 25 25v87h292v-87c0-14 11-25 25-25s25 11 25 25v87h98l56-625c-1-44-45-80-98-80z" horiz-adv-x="1000" />

<glyph glyph-name="chat" unicode="&#xe825;" d="M727 751h-671c-31 0-56-25-56-56v-403c0-31 25-56 56-56h44v-150c0-10 6-18 14-22 3-1 6-2 9-2 7 0 13 3 17 7l167 167h33c13 0 24 10 24 23 0 13-11 24-24 24 0 0-44 0-45 0-5 0-11-3-15-7l-133-133c0 0 0 118 0 119-1 12-11 21-24 21h-67c-5 0-9 4-9 9v403c0 5 4 9 9 9h671c5 0 9-4 9-9v-155c0-13 11-23 24-23s23 10 23 23v155c0 31-25 56-56 56z m217-289h-470c-31 0-56-25-56-56v-274c0-32 25-57 56-57h294l119-119c5-5 11-7 17-7 3 0 6 1 9 2 9 4 15 12 15 22v102h16c31 0 56 25 56 57v274c0 31-25 56-56 56z m9-330c0-6-4-10-9-10h-40c-12 0-23-9-24-21 0-1 0-71 0-71l-85 85c0 0 0 1-1 1 0 0 0 0-1 1-4 3-9 5-15 5h-304c-5 0-9 4-9 10v274c0 5 4 9 9 9h470c5 0 9-4 9-9v-274z m-244 160c-13 0-24-10-24-23 0-13 11-24 24-24 13 0 24 11 24 24 0 13-11 23-24 23z m-103 303c0 0-429 0-429 0-13 0-23-11-23-24s10-23 23-23h429c13 0 24 10 24 23s-11 24-24 24z m-266-156h-163c-13 0-23-11-23-24 0-13 10-23 23-23h163c13 0 24 10 24 23s-11 24-24 24z m259-147c-13 0-23-10-23-23 0-13 10-24 23-24 13 0 24 11 24 24 0 13-11 23-24 23z m220 0c-13 0-24-10-24-23 0-13 11-24 24-24 13 0 23 11 23 24 0 13-10 23-23 23z" horiz-adv-x="1000" />

<glyph glyph-name="favorites" unicode="&#xe826;" d="M922 456c18 18 25 44 17 68-8 24-28 41-53 45l-219 31c-4 1-8 4-10 8l-98 198c-11 23-34 37-59 37-25 0-48-14-59-37l-98-198c-2-4-6-7-10-8l-219-31c-25-4-45-21-53-45-8-24-1-50 17-68l158-154c3-3 5-8 4-12l-37-218c-5-25 5-49 26-64 20-15 47-17 69-5l196 103c4 2 8 2 12 0l196-103c10-6 20-8 31-8 13 0 27 4 38 13 21 15 31 39 27 64l-38 218c-1 4 1 9 4 12l158 154z m-214-175l38-218c1-7-4-11-6-13-2-1-7-4-14-1l-195 103c-10 5-20 8-31 8-10 0-21-3-31-8l-195-103c-7-3-12 0-14 1-2 2-7 6-5 13l37 218c4 22-4 43-19 59l-158 154c-6 5-4 11-4 13 1 3 4 8 11 9l219 32c21 3 40 17 49 36l98 198c4 7 10 8 12 8 3 0 9-1 12-8v0l98-198c9-19 28-33 49-36l219-32c8-1 10-6 11-9 1-2 2-8-3-13l-159-154c-15-16-22-37-19-59z m100 525c-12 8-28 6-37-6l-28-39c-8-11-6-28 6-36 5-4 10-5 16-5 8 0 16 3 21 10l28 39c9 12 6 28-6 37z m-551-44l-28 38c-9 12-25 15-37 6-12-9-15-25-6-37l28-38c5-7 13-11 21-11 6 0 11 1 16 5 12 8 14 25 6 37z m-160-511c-5 14-20 21-33 17l-46-15c-14-5-21-19-17-33 4-11 14-18 25-18 3 0 6 0 9 1l45 15c14 4 21 19 17 33z m403-293c-15 0-26-12-26-27v-47c0-15 11-27 26-27 15 0 26 12 26 27v47c0 15-11 27-26 27z m482 295l-45 15c-14 4-29-3-34-17-4-14 3-29 17-34l46-14c2-1 5-2 8-2 11 0 21 8 25 19 4 14-3 28-17 33z" horiz-adv-x="1000" />

<glyph glyph-name="glass" unicode="&#xe829;" d="M617 411c11 0 20 8 20 19s-9 20-20 20-19-9-19-20 9-19 19-19z m-351 164c0-8 0-16 0-24-1-3-1-6 0-9 4-76 19-150 46-221 3-15 98-204 35-445-4-12 6-24 19-24h270c16 0 25 19 15 31-59 238 33 420 38 438 29 79 45 165 45 254v140c0 2 0 4 0 6 8 60-39 111-97 111-19 0-38-5-53-15-22 22-52 35-84 35s-62-13-84-35c-15 10-34 15-53 15-58 0-105-51-96-111-1-2-1-4-1-6v-140z m125-684c3 13 5 26 7 39h204c2-13 5-26 8-39h-219z m261 444c-5-20-77-160-55-366h-194c22 206-50 345-55 366-23 62-37 127-41 193h40c8-23 30-39 55-39s48 16 56 39h236c-5-66-19-131-42-193z m43 240c0-3 0-6 0-8h-234v109c0 11 9 20 19 20 11 0 20-9 20-20 0-32 26-58 59-58 32 0 58 26 58 58 0 11 9 20 20 20h58v-121z m-332 218c16 0 31-6 42-17 4-4 10-6 16-6 6 1 11 4 14 8 15 22 39 35 65 35 26 0 50-13 65-35 3-4 8-8 14-8 6-1 12 2 16 6 11 11 26 17 42 17 32 0 58-26 58-58h-58c-32 0-59-26-59-59 0-10-8-19-19-19-11 0-20 9-20 19 0 33-26 59-58 59s-59-26-59-59v-128c0-11-9-20-19-20s-20 9-20 20v128c0 33-26 59-58 59h-20c0 32 26 58 58 58z m-58-97h19c11 0 20-9 20-20v-109h-39c0 2 0 5 0 8v121z m243-520c9 0 17 7 19 16 16 79 40 131 48 156 4 10-1 21-11 25-10 4-22-1-25-11-9-26-34-80-50-162-2-13 7-24 19-24z" horiz-adv-x="1000" />

<glyph glyph-name="can" unicode="&#xe82a;" d="M500 389c11 0 20 9 20 20s-9 19-20 19-19-9-19-19 8-20 19-20z m-268-455l46-46c-7-3-12-10-12-19 0-10 8-19 19-19h430c11 0 19 9 19 19 0 9-5 16-12 19l46 46c3 3 5 8 5 14v687c0 5-2 10-5 14l-46 46c7 3 12 10 12 19 0 10-8 19-19 19-42 0-100 0-141 0l11 44c9 37-19 73-57 73h-56c-38 0-66-36-57-73l11-44c-41 0-98 0-141 0-11 0-19-9-19-20 0-8 5-15 12-18l-46-46c-3-4-5-9-5-14v-688c0-5 2-10 5-13z m436-45h-336l-39 39h414l-39-39z m-196 922h56c13 0 22-12 19-24l-13-54h-68l-13 54c-3 12 6 24 19 24z m-140-117h336l39-39h-414l39 39z m-66-78h468v-168h-59c-45 50-108 78-175 78-67 0-130-28-175-78h-59v168z m0-207h68c6 0 12 2 15 7 38 45 92 71 151 71s113-26 150-71c4-5 10-7 15-7h69v-235h-68c-6 0-11-2-15-7-37-45-93-71-151-71s-113 26-151 71c-3 5-9 7-15 7h-68v235z m0-274h59c45-50 108-78 175-78s130 28 175 78h59v-168h-468v168z m234 20c75 0 137 61 137 136 0 42-19 81-51 107-8 7-21 5-28-3-6-9-5-21 3-28 23-19 37-46 37-76 0-54-44-97-98-97s-98 43-98 97c0 30 14 57 37 76 8 7 9 19 3 28-7 8-19 10-28 3-32-26-51-65-51-107 0-75 62-136 137-136z" horiz-adv-x="1000" />
</font>
</defs>
</svg>
